<?xml version="1.0" encoding="utf-8"?>
<!-- Generator: Adobe Illustrator 26.0.2, SVG Export Plug-In . SVG Version: 6.00 Build 0)  -->
<svg version="1.1" id="Layer_1" xmlns="http://www.w3.org/2000/svg" xmlns:xlink="http://www.w3.org/1999/xlink" x="0px" y="0px"
	 viewBox="0 0 1366 768" style="enable-background:new 0 0 1366 768;" xml:space="preserve">
<style type="text/css">
	.st0{fill:#2E3192;}
	.st1{fill:#2C67EF;}
	.st2{fill:url(#SVGID_1_);}
	.st3{fill:none;}
	.st4{fill:#F1C8CC;}
	.st5{font-family:'RoyalAcid';}
	.st6{font-size:126px;}
	.st7{fill:#EF78AC;}
	.st8{fill:#EC4A75;}
	.st9{fill:none;stroke:#472AAE;stroke-width:4.5;stroke-miterlimit:10;}
</style>
<path class="st0" d="M925.5,617.4l-0.12,3.53c-13.74,14.59-28.73,27.98-44.81,40.01c-57.67,43.14-129.27,68.69-206.84,68.69
	c-77.56,0-149.16-25.55-206.83-68.69c-25.26-18.9-47.85-41.17-67.1-66.15l2.44-1.67c0,0,59.44-62.79,106.33-90.41
	c46.88-27.63,94.67-54.52,174.14-48.56c66.97,5.02,87.31,16.03,132.28,59.44c30.04,29,38.77,56.44,107.59,101.9
	C923.53,616.12,924.51,616.76,925.5,617.4z"/>
<path class="st1" d="M1010.28,463.03c-0.88,3.77-1.82,7.51-2.83,11.23c-0.26,0.98-0.53,1.96-0.81,2.94
	c-0.41,1.49-0.84,2.98-1.28,4.47c-0.28,0.98-0.57,1.96-0.88,2.93c-0.5,1.67-1.02,3.34-1.55,5c-0.25,0.78-0.5,1.55-0.75,2.32
	c-0.52,1.58-1.05,3.15-1.6,4.72c-0.36,1.08-0.74,2.17-1.13,3.24c-0.42,1.2-0.86,2.4-1.3,3.59c-2,5.43-4.13,10.8-6.4,16.1
	c-0.33,0.79-0.67,1.58-1.01,2.37c-1.27,2.91-2.58,5.81-3.93,8.68c-0.36,0.77-0.73,1.55-1.1,2.32c-0.39,0.82-0.79,1.64-1.19,2.46
	c-0.47,0.97-0.95,1.94-1.43,2.9c-0.56,1.13-1.13,2.25-1.71,3.37c-1.15,2.24-2.32,4.46-3.52,6.68c-0.38,0.71-0.77,1.41-1.16,2.12
	c-1.15,2.09-2.32,4.17-3.51,6.23c-0.5,0.86-1,1.72-1.51,2.58c-0.92,1.55-1.84,3.1-2.78,4.64c-0.4,0.65-0.8,1.3-1.2,1.94
	c-1.65,2.66-3.34,5.3-5.06,7.92c-0.35,0.54-0.7,1.07-1.06,1.6c-1.05,1.59-2.12,3.16-3.19,4.72c-1.15,1.65-2.3,3.29-3.48,4.93
	c-0.56,0.79-1.13,1.59-1.7,2.37c-0.05,0.05-0.08,0.1-0.12,0.15c-0.69,0.96-1.39,1.91-2.1,2.86c-0.25,0.33-0.5,0.66-0.75,0.99
	c-0.63,0.85-1.27,1.69-1.92,2.53c-0.07,0.1-0.15,0.2-0.23,0.31c-0.68,0.89-1.36,1.77-2.06,2.65c-0.21,0.27-0.42,0.54-0.63,0.81
	c-0.77,0.98-1.55,1.96-2.34,2.94c-0.87,1.08-1.74,2.15-2.62,3.21c-4.09,4.96-8.32,9.8-12.68,14.52c-0.69,0.75-1.38,1.5-2.08,2.24
	c-0.69,0.73-1.38,1.46-2.08,2.19c-0.84,0.89-1.7,1.77-2.56,2.65c-0.87,0.89-1.74,1.78-2.62,2.66c-0.15,0.15-0.3,0.29-0.45,0.45
	c-0.85,0.85-1.7,1.69-2.56,2.52c-3.04,2.98-6.14,5.9-9.28,8.76c-1.03,0.93-2.06,1.86-3.09,2.77c-2.27,2.02-4.57,4-6.9,5.96
	c-0.64,0.54-1.28,1.08-1.93,1.62c-4.45,3.69-9,7.27-13.64,10.75c-57.67,43.14-129.27,68.69-206.84,68.69
	c-77.56,0-149.16-25.55-206.83-68.69c-4.01-3-7.94-6.08-11.8-9.24c-0.79-0.64-1.58-1.29-2.36-1.94c-2.81-2.34-5.58-4.73-8.31-7.15
	c-1.04-0.91-2.06-1.84-3.09-2.77c-3.15-2.86-6.25-5.78-9.28-8.76c-0.86-0.83-1.71-1.67-2.56-2.52l-0.45-0.45
	c-0.88-0.88-1.75-1.77-2.62-2.66c-0.86-0.88-1.72-1.76-2.56-2.65c-0.71-0.73-1.4-1.46-2.08-2.19c-0.7-0.74-1.39-1.49-2.08-2.24
	c-4.37-4.72-8.59-9.56-12.68-14.52c-0.88-1.06-1.75-2.13-2.62-3.21c-0.79-0.98-1.57-1.96-2.34-2.94c-0.22-0.27-0.43-0.54-0.63-0.81
	c-0.7-0.88-1.38-1.76-2.06-2.65c-0.09-0.11-0.16-0.21-0.23-0.31c-0.65-0.84-1.29-1.68-1.92-2.53c-0.26-0.33-0.51-0.66-0.75-0.99
	c-0.71-0.95-1.41-1.9-2.1-2.86c-0.05-0.05-0.08-0.1-0.12-0.15c-0.57-0.78-1.14-1.58-1.7-2.37c-1.18-1.64-2.34-3.28-3.48-4.93
	c-1.35-1.96-2.69-3.94-4-5.93c-1.81-2.74-3.59-5.51-5.31-8.31c-0.41-0.64-0.8-1.29-1.2-1.94c-0.94-1.54-1.87-3.09-2.78-4.64
	c-0.51-0.86-1.01-1.72-1.51-2.58c-1.6-2.76-3.16-5.55-4.68-8.35c-1.06-1.96-2.1-3.93-3.12-5.92c-0.14-0.25-0.27-0.51-0.4-0.76
	c-0.33-0.64-0.66-1.28-0.98-1.93c-0.37-0.72-0.73-1.43-1.08-2.15c-0.62-1.25-1.23-2.49-1.83-3.75c-0.61-1.26-1.21-2.52-1.8-3.79
	c-0.48-1.02-0.96-2.06-1.43-3.09c-0.22-0.49-0.44-0.97-0.66-1.46c-0.4-0.89-0.8-1.79-1.19-2.69c-0.41-0.92-0.8-1.83-1.19-2.75
	c-0.34-0.79-0.68-1.57-1-2.36c-0.43-1.01-0.86-2.03-1.27-3.05c-1.03-2.53-2.03-5.06-3.01-7.61c-0.45-1.19-0.9-2.38-1.33-3.57
	c-0.44-1.19-0.88-2.39-1.3-3.59c-0.39-1.07-0.77-2.16-1.13-3.24c-0.29-0.82-0.57-1.64-0.85-2.47c-0.37-1.11-0.74-2.23-1.1-3.34
	c-0.36-1.09-0.71-2.19-1.05-3.28c-0.31-0.98-0.61-1.96-0.9-2.95c-0.31-0.97-0.6-1.95-0.88-2.93c-0.44-1.49-0.87-2.98-1.28-4.47
	c-0.28-0.98-0.55-1.96-0.81-2.94c-1.01-3.72-1.95-7.46-2.83-11.23H1010.28z"/>
<linearGradient id="SVGID_1_" gradientUnits="userSpaceOnUse" x1="673.7261" y1="463.033" x2="673.7261" y2="38.373">
	<stop  offset="0" style="stop-color:#ABC4F1"/>
	<stop  offset="1" style="stop-color:#E3C5C6"/>
</linearGradient>
<path class="st2" d="M1019.36,384c0,27.19-3.14,53.65-9.08,79.03h-673.1c-5.94-25.38-9.08-51.84-9.08-79.03
	c0-190.89,154.75-345.63,345.63-345.63C864.62,38.37,1019.36,193.11,1019.36,384z"/>
<rect x="607.03" y="354.54" class="st3" width="421.39" height="110.51"/>
<text transform="matrix(1 0 0 1 607.0312 452.0743)" class="st4 st5 st6">Islands</text>
<rect x="609.03" y="356.54" class="st3" width="421.39" height="110.51"/>
<text transform="matrix(1 0 0 1 609.0312 454.0743)" class="st7 st5 st6">Islands</text>
<path class="st7" d="M925.5,617.4l-0.12,3.53c-13.74,14.59-28.73,27.98-44.81,40.01c-57.67,43.14-129.27,68.69-206.84,68.69
	c-77.56,0-149.16-25.55-206.83-68.69c-25.26-18.9-47.85-41.17-67.1-66.15l2.44-1.67c0,0,59.44-62.79,106.33-90.41
	c46.88-27.63,94.67-54.52,174.14-48.56c66.97,5.02,87.31,16.03,132.28,59.44c30.04,29,38.77,56.44,107.59,101.9
	C923.53,616.12,924.51,616.76,925.5,617.4z"/>
<path class="st8" d="M777.24,225.7c-1.76-5.57-3.57-11.11-6.45-16.23c-0.51-0.9-1.16-1.72-1.68-2.61c-0.7-1.19-0.33-1.85,1.01-1.81
	c0.31,0,0.63,0.15,0.94,0.15c1.22-0.02,1.8-0.74,1.4-1.87c-0.26-0.74-0.7-1.44-1.14-2.1c-3.3-4.84-6.97-9.36-11.83-12.76
	c-1.23-0.86-2.62-1.51-3.88-2.34c-0.41-0.27-0.9-0.85-0.86-1.24c0.03-0.39,0.65-0.77,1.08-1.06c0.24-0.16,0.63-0.11,0.92-0.21
	c1.53-0.56,1.83-1.37,1-2.74c-0.29-0.48-0.61-0.95-1-1.35c-3.26-3.32-6.68-6.41-10.87-8.58c-2.83-1.47-5.53-3.2-8.36-4.69
	c-1.47-0.77-3.1-1.25-4.66-1.86c-0.51-0.21-1.08-0.34-1.54-0.64c-0.28-0.19-0.6-0.71-0.52-0.96c0.12-0.38,0.53-0.87,0.89-0.93
	c0.93-0.18,1.94-0.02,2.85-0.25c0.7-0.17,1.68-0.63,1.84-1.17c0.14-0.5-0.52-1.42-1.05-1.88c-0.65-0.55-1.5-0.91-2.33-1.2
	c-5.36-1.84-10.64-3.93-16.25-4.99c-3.25-0.61-6.5-0.78-9.78-0.44c-1.47,0.15-2.99,0.5-4.65-0.45c0.35-0.61,0.62-1.13,0.94-1.63
	c1.19-1.89,0.76-3.24-1.44-3.72c-1.45-0.32-3.01-0.34-4.51-0.26c-3.75,0.22-7.51,0.44-11.22,0.94c-2.76,0.37-5.45,1.18-8.18,1.79
	c-0.81,0.18-1.62,0.35-2.43,0.53c-0.1-0.14-0.2-0.29-0.29-0.43c0.24-0.42,0.38-1,0.74-1.23c4.51-2.95,9.22-5.16,14.84-4.18
	c0.78,0.14,1.6,0.08,2.4,0.08c0.9,0,1.85-0.02,2.19-1.06c0.34-1.04-0.43-1.69-1.12-2.19c-1.17-0.82-2.43-1.52-3.67-2.24
	c-0.8-0.46-2.15-0.57-1.96-1.76c0.22-1.43,1.63-0.89,2.59-1c5.38-0.59,10.27,0.96,14.94,3.46c0.7,0.37,1.45,0.73,2.22,0.86
	c1.38,0.23,2.07-0.61,1.8-2.01c-0.14-0.72-0.29-1.44-0.43-2.17c0.16-0.11,0.32-0.23,0.48-0.35c0.67,0.35,1.41,0.6,1.98,1.06
	c2.34,1.93,4.62,3.94,6.93,5.9c1.16,0.97,2.27,2.03,3.54,2.84c1.77,1.13,2.65,0.88,4.01-0.79c0.85-1.03,1.37-1.05,2.46,0.26
	c2.69,3.27,5.36,6.56,7.92,9.93c1.21,1.58,2.14,3.37,3.2,5.06c0.5,0.8,0.88,1.92,2.07,1.64c1.18-0.28,1.51-1.4,1.53-2.47
	c0.04-2.71,0.21-5.45-0.08-8.13c-0.39-3.49-1.19-6.93-1.77-10.39c-0.13-0.73-0.12-1.49-0.19-2.57c0.98,0.25,1.56,0.42,2.15,0.54
	c1.54,0.34,2.7-0.83,1.95-2.18c-1.88-3.41-2.9-7.28-5.77-10.17c-3.17-3.2-6.49-6.16-10.66-8.02c-0.15-0.06-0.32-0.11-0.42-0.22
	c-0.35-0.39-0.66-0.81-0.99-1.21c0.51-0.29,0.99-0.74,1.52-0.82c0.78-0.12,1.61,0.14,2.38,0c0.44-0.09,0.97-0.58,1.14-1.02
	c0.11-0.29-0.26-0.91-0.58-1.18c-0.54-0.46-1.19-0.81-1.84-1.11c-6.97-3.25-14.22-5.27-22.01-5.03c-2.7,0.08-5.42-0.23-8.13-0.29
	c-1.27-0.02-2.55,0.1-3.82,0.2c-1.64,0.11-1.96-0.07-2.48-1.56c-0.67-1.92-1.2-2.3-3.17-1.78c-1.38,0.37-2.78,0.82-4.01,1.52
	c-2.97,1.71-5.86,3.57-8.75,5.41c-0.75,0.48-1.48,0.74-2.21,0.17c-1.25-0.98-2.17-0.35-3.19,0.44c-4.75,3.65-8.1,8.33-10.23,13.92
	c-0.53,1.39-0.52,1.39-1.83,1.95c-0.15-0.44-0.37-0.85-0.42-1.29c-0.49-4.52-0.82-9.07-1.45-13.57c-0.82-5.91-3.6-11.07-6.85-15.95
	c-1.01-1.51-2.35-2.87-4.63-2.12c-0.45,0.15-1.29-0.43-1.75-0.88c-0.86-0.83-1.52-1.85-2.34-2.73c-3.16-3.42-7.16-5.56-11.35-7.43
	c-1.05-0.47-1.74-0.35-2.34,0.77c-0.81,1.5-1.23,1.62-2.57,0.67c-3.64-2.57-7.83-3.98-11.8-5.84c-1.51-0.71-3-1.48-4.46-2.3
	c-1.18-0.68-2.3-0.96-3.48-0.24c-0.19,2.04,2.53,2.46,2.08,4.78c-0.94-0.13-1.84-0.2-2.72-0.39c-4.21-0.94-8.37-2.1-12.75-2.01
	c-3.07,0.07-6.02,0.72-8.93,1.64c-0.46,0.15-0.9,0.35-1.32,0.57c-0.81,0.42-1.52,0.97-1.48,1.99c0.04,1.04,0.8,1.57,1.68,1.81
	c2.54,0.69,5.07,1.47,7.66,1.91c3.96,0.68,7.82,1.67,11.59,3.01c1.91,0.69,2.06,1.46,0.6,2.85c-0.29,0.27-0.62,0.51-0.87,0.82
	c-1.39,1.74-0.75,3.45,1.46,3.86c1.8,0.33,3.68,0.42,5.42,0.94c2.36,0.7,4.66,1.65,6.93,2.6c0.96,0.41,1.21,1.23,0.47,2.15
	c-0.25,0.31-0.52,0.62-0.71,0.97c-0.63,1.16-0.52,1.98,0.6,2.67c1.08,0.66,2.28,1.18,3.48,1.59c2.16,0.75,4,1.93,5.6,3.57
	c1.01,1.02,2.15,1.91,3.17,2.91c0.52,0.51,0.9,1.16,1.42,1.84c-0.55,0.34-0.8,0.54-1.08,0.65c-2.19,0.88-2.39,1.59-0.79,3.15
	c1.43,1.4,2.95,2.7,4.4,4.07c0.7,0.65,1.39,1.32,2,2.06c0.26,0.31,0.3,0.81,0.43,1.21c-1.03,0.57-1.52-0.13-1.96-0.62
	c-3.35-3.77-7.73-5.84-12.34-7.57c-1.3-0.48-2.41-0.74-3.36,0.65c-0.72,1.06-1.67,0.6-2.56,0.17c-2.74-1.33-5.43-2.76-8.22-3.94
	c-3.67-1.56-7.43-2.92-11.15-4.36c-1.49-0.58-2.96-1.24-4.49-1.66c-1.44-0.41-2.96-0.8-4.43-0.76c-2.31,0.05-3.08,1.54-2.04,3.6
	c0.43,0.86,1.09,1.59,1.49,2.46c0.19,0.42,0.15,1.07-0.05,1.49c-0.09,0.19-0.92,0.21-1.28,0.04c-4.95-2.4-10.4-2.4-15.66-3.28
	c-5.13-0.86-10.3-1.32-15.52-1.05c-1.43,0.07-2.88,0.15-4.28,0.46c-2.55,0.56-3.16,2.22-1.8,4.43c0.39,0.64,0.71,1.32,1.29,2.43
	c-1.16,0.05-1.83,0.16-2.48,0.08c-4.67-0.52-9.08,0.23-13.16,2.62c-1.59,0.93-3.13,1.93-4.7,2.88c-2.88,1.73-4.65,4.33-5.83,7.39
	c-0.59,1.52-0.36,2,1.16,2.46c0.51,0.15,1.02,0.32,1.95,0.61c-0.66,0.79-1.02,1.5-1.59,1.89c-5.77,3.9-10.23,9.14-14.74,14.32
	c-2.51,2.9-4.93,5.89-6.62,9.38c-0.17,0.36-0.4,0.69-0.59,1.04c-0.45,0.83-0.7,1.7,0.17,2.38c0.84,0.66,1.5,0.02,2.07-0.54
	c4.58-4.41,10.31-6.93,15.92-9.64c1.48-0.71,3.01-1.32,5.08-2.23c-0.3,1.16-0.38,1.75-0.61,2.26c-0.25,0.59-0.67,1.09-0.95,1.66
	c-0.38,0.78-0.5,1.71,0.33,2.13c0.49,0.25,1.5,0.12,1.92-0.25c2.86-2.47,6.26-3.35,9.87-3.97c2.58-0.44,5.05-1.53,7.62-2.08
	c1.85-0.39,3.79-0.47,5.7-0.47c1.34-0.01,1.61,0.64,1.02,1.91c-0.13,0.29-0.41,0.54-0.46,0.83c-0.09,0.52-0.25,1.21,0,1.54
	c0.24,0.33,1,0.51,1.47,0.42c6.49-1.3,13.05-2.29,19.43-4.16c2.74-0.8,5.65-1.07,8.49-1.52c0.49-0.08,1.03,0.13,1.97,0.27
	c-0.62,0.9-1.06,1.51-1.46,2.14c-0.8,1.27-0.34,2.25,1.14,2.24c0.94,0,1.91-0.22,2.82-0.49c5.64-1.73,11.44-2.19,17.29-2.28h0.96
	c1,0.01,1.93,0.06,2.14,1.37c0.27,1.68-0.1,2.6-1.42,3.14c-2.07,0.84-4.16,1.61-6.18,2.52c-0.71,0.32-1.33,0.9-1.89,1.46
	c-1.23,1.24-1.05,2.04,0.52,2.65c0.14,0.06,0.34,0.03,0.46,0.11c0.43,0.29,1.23,0.69,1.18,0.92c-0.09,0.53-0.51,1.11-0.95,1.45
	c-4.97,3.86-9.39,8.2-12.43,13.78c-0.53,0.98-1,2.01-1.36,3.07c-0.23,0.66-0.33,1.41-0.27,2.11c0.1,1.36,1.08,1.78,2.17,0.93
	c0.81-0.64,1.44-1.52,2.27-2.13c0.42-0.3,1.12-0.23,1.7-0.32c-0.07,0.58,0.08,1.31-0.22,1.71c-3.94,5.18-5.88,11.32-8.35,17.2
	c-1.02,2.44-0.66,5.05-0.55,7.59c0.06,1.25,0.65,1.55,1.99,1.42c0.46-0.04,0.91-0.14,1.62-0.25c0,0.99,0.05,1.81-0.01,2.63
	c-0.42,5.66-0.79,11.32,0.32,16.95c0.15,0.78,0.39,1.57,0.77,2.25c0.63,1.12,1.49,1.14,2.27,0.13c0.29-0.37,0.48-0.82,0.67-1.26
	c1.63-3.73,3.26-7.47,4.87-11.21c0.69-1.61,1.3-3.26,2.06-4.85c0.24-0.51,0.75-1.05,1.26-1.22c0.27-0.1,0.9,0.49,1.19,0.9
	c0.66,0.91,1.19,2.07,2.57,1.68c1.27-0.36,1.46-1.56,1.68-2.68c0.55-2.74,1.12-5.48,1.7-8.22c0.2-0.94,0.36-1.9,0.71-2.78
	c0.21-0.52,0.69-1.05,1.19-1.27c0.21-0.09,0.8,0.59,1.15,0.98c0.26,0.28,0.37,0.71,0.63,1.01c0.67,0.76,1.35,0.73,1.97-0.13
	c0.32-0.44,0.54-0.98,0.75-1.49c1.61-4,3.2-8.02,4.84-12.01c0.45-1.11,0.98-2.19,1.61-3.21c0.38-0.62,1-1.09,1.63-1.75
	c0.44,0.57,0.71,0.84,0.89,1.17c1.06,1.88,1.8,1.9,3.05,0.15c2.22-3.12,4.29-6.38,6.78-9.28c4.07-4.72,8.53-9.07,13.79-12.51
	c0.41-0.26,0.97-0.28,1.53-0.44c0.57,1.44-0.21,2.36-0.72,3.29c-1.84,3.37-3.69,6.73-5.63,10.03c-2.9,4.95-4.42,10.44-6.24,15.81
	c-1.48,4.39-2.89,8.8-4.4,13.18c-0.44,1.28-1.03,2.53-1.7,3.7c-3.82,6.72-6.28,13.98-8.61,21.3c-1.62,5.1-3.33,10.18-5.01,15.26
	c-0.23,0.68-0.5,1.36-0.86,1.98c-2.32,3.99-3.41,8.43-4.71,12.79c-1.89,6.35-3.77,12.7-5.63,19.06c-0.83,2.84-1.56,5.7-2.38,8.54
	c-0.85,2.91-1.7,5.83-2.65,8.71c-1.67,5.03-2.42,10.25-3.37,15.44c-1.25,6.83-2.47,13.67-3.7,20.51c-0.65,3.62-1.25,7.24-1.97,10.85
	c-0.99,5.01-2.11,10-3.11,15.02c-1.26,6.26-2.54,12.53-3.64,18.82c-1.47,8.42-2.89,16.86-4.13,25.31
	c-1.02,6.96-1.85,13.95-2.58,20.94c-0.54,5.16-0.78,10.35-1.18,15.52c-0.04,0.6-0.25,1.18-0.49,2.23c-0.66-0.68-1.13-0.97-1.3-1.39
	c-0.27-0.66-0.34-1.39-0.48-2.1c-2.21-11.18-5.49-21.99-10.39-32.33c-2.21-4.68-3.9-9.62-5.57-14.53
	c-2.22-6.54-5.06-12.78-8.37-18.82c-1.19-2.17-2.36-4.37-3.34-6.63c-3.3-7.56-6.98-14.91-11.58-21.78c-1.33-1.98-2.51-4.1-3.51-6.27
	c-1.76-3.8-4.11-7.21-6.46-10.64c-3.33-4.88-6.44-9.92-9.78-14.8c-1.57-2.31-3.26-4.59-5.23-6.54c-2.62-2.58-4.68-5.46-6.18-8.76
	c-1.94-4.27-4.79-7.91-7.68-11.54c-0.45-0.57-0.75-1.26-1.12-1.9c0.12-0.16,0.23-0.32,0.34-0.49c0.65,0.09,1.39,0.01,1.94,0.3
	c2.74,1.46,5.44,3,8.13,4.55c1.18,0.68,2.24,1.58,3.46,2.14c0.81,0.37,1.85,0.55,2.73,0.43c1.15-0.17,1.85,0.17,2.37,1.12
	c1.18,2.09,2.35,4.19,3.54,6.28c0.55,0.97,1.03,2,1.71,2.87c0.96,1.21,1.69,1.1,2.62-0.18c1.14-1.57,1.74-1.52,2.55,0.3
	c0.75,1.68,1.36,3.42,2.17,5.07c1.06,2.13,1.3,2.2,3.37,1.08c1.22-0.67,1.81,0.04,2.3,0.91c1.15,2.06,2.66,3.79,4.58,5.14
	c0.53,0.37,1.06,0.76,1.64,0.99c1.74,0.69,3-0.04,2.84-1.9c-0.2-2.45-0.75-4.88-1.18-7.31c-0.13-0.68-0.35-1.35-0.56-2.16
	c2.93-0.81,3.21-1.21,2.83-3.95c-0.62-4.48-3.05-7.81-6.68-10.37c-0.93-0.66-2.13-1.08-2.62-2.56c0.61-0.05,1.04-0.08,1.47-0.11
	c1.49-0.08,1.97-0.82,1.38-2.19c-0.15-0.36-0.37-0.72-0.63-1.01c-3.56-4.08-7.41-7.74-12.74-9.43c-1.65-0.52-1.76-1.13-0.51-2.24
	c0.34-0.31,0.71-0.6,1.08-0.91c-0.26-1.79-1.66-2.24-2.94-2.43c-3.02-0.43-4.9-2.94-7.62-3.89c-0.27-0.09-0.38-0.62-0.77-1.31
	c1.04-0.18,1.84-0.42,2.64-0.45c5.16-0.23,10.18,0.84,15.23,1.7c0.63,0.1,1.28,0.35,1.88,0.27c0.56-0.08,1.24-0.4,1.52-0.84
	c0.18-0.27-0.16-1.07-0.49-1.43c-0.64-0.7-1.46-1.23-2.16-1.88c-0.22-0.19-0.31-0.52-0.65-1.13c0.86-0.16,1.5-0.42,2.14-0.39
	c5.26,0.18,10.56-0.46,15.78,0.77c0.92,0.22,1.91,0.21,2.86,0.18c1.7-0.04,2.11-0.57,1.89-2.23c-0.24-1.89-0.08-2.3,1.74-2.08
	c3.39,0.4,6.76,1.09,10.13,1.7c1.26,0.23,2.48,0.68,3.74,0.86c0.55,0.08,1.38-0.08,1.67-0.45c0.27-0.34,0.03-1.12-0.07-1.69
	c-0.08-0.51-0.29-1-0.59-1.98c1.19,0.24,2.02,0.3,2.77,0.57c3.53,1.28,7.03,2.64,10.55,3.94c0.75,0.27,1.54,0.53,2.32,0.57
	c0.56,0.03,1.39-0.15,1.64-0.54c0.27-0.4,0.07-1.18-0.09-1.75c-0.13-0.44-0.47-0.83-0.77-1.2c-2.45-3-5.29-5.58-8.6-7.55
	c-2.33-1.39-4.82-2.51-7.26-3.72c-1.71-0.86-1.83-0.94-1.02-2.65c0.59-1.25,0.03-1.99-0.82-2.68c-2.04-1.64-4.42-2.64-6.98-2.99
	c-2.59-0.35-5.24-0.39-7.86-0.54c-0.8-0.05-1.6,0.03-2.4,0c-1.89-0.09-1.98-0.2-1.89-2.12c0.07-1.64-0.36-2.21-2.03-2.21
	c-1.34,0-2.71,0.2-4.03,0.46c-3.06,0.59-6.11,1.25-9.14,1.95c-2.87,0.65-5.17,2.46-7.61,3.95c-0.64,0.39-1.26,0.81-2.36,1.53
	c-0.02-1.25-0.06-1.91-0.05-2.57c0.03-2.14-0.79-2.75-2.59-1.73c-4.8,2.72-9.68,5.31-13.87,8.97c-0.78,0.68-1.48,1.45-2.18,2.21
	c-0.72,0.8-1.36,0.86-2.25,0.15c-1.52-1.22-1.89-1.19-3.24,0.06c-1,0.92-1.9,1.95-2.85,2.92c-0.54,0.54-1.11,1.05-1.73,1.64
	c-0.88-0.98-0.36-1.74-0.13-2.43c0.31-0.96,0.43-1.83-0.22-2.72c-0.76-1.02-0.39-1.96,0.37-2.81c1.86-2.09,3.69-4.21,5.59-6.25
	c1.43-1.54,1.52-1.52,0.64-3.44c-0.54-1.17-0.03-1.9,0.91-2.35c1.5-0.72,3.07-1.33,4.63-1.93c1.2-0.46,2.45-0.76,3.62-1.26
	c0.68-0.28,1.33-0.91,0.91-1.69c-0.23-0.42-0.99-0.69-1.55-0.77c-0.66-0.1-1.36,0.08-2.07,0.15c-0.53-1.56,0.47-2.11,1.31-2.63
	c3.13-1.92,6.31-3.77,9.45-5.68c0.91-0.55,2.36-0.9,2.05-2.3c-0.32-1.41-1.75-1.09-2.84-1.16c-4.56-0.29-8.86,0.91-13.16,2.21
	c-0.73,0.23-1.66,0.51-2.28,0.25c-1.26-0.54-2.29-0.25-3.43,0.24c-3.48,1.51-6.77,3.27-8.99,6.53c-0.64,0.94-1.64,1.22-2.74,1.17
	c-1.22-0.06-2.22,0.33-2.86,1.39c-1.72,2.88-3.46,5.75-5.1,8.68c-0.5,0.89-0.65,1.97-1.03,2.93c-0.37,0.94-1.04,1.15-1.9,0.58
	c-0.07-0.05-0.14-0.09-0.19-0.15c-0.71-0.66-1.41-1.42-2.51-0.89c-1.2,0.58-1.8,1.67-1.78,2.92c0.03,2.79,0.05,5.6,0.41,8.36
	c0.31,2.36,1.09,4.66,1.64,6.99c0.11,0.44,0.13,0.9-0.19,1.65c-0.49-0.41-1.03-0.77-1.47-1.23c-1.93-2.01-3.79-4.11-5.77-6.08
	c-1.87-1.86-2.69-1.94-5-0.63c-0.99,0.56-1.6,0.16-2.34-0.44c-1.48-1.22-2.95-2.46-4.57-3.49c-1.12-0.71-2.43-1.25-3.73-1.54
	c-1.71-0.37-2.49,0.59-2.19,2.36c0.39,2.29,0.09,2.66-2.32,2.39c-3.97-0.44-7.9-0.22-11.55,1.39c-4.69,2.06-8.44,5.39-11.27,9.71
	c-0.64,0.97-0.83,1.95,0.04,2.84c0.9,0.93,0.5,1.7-0.08,2.55c-1.12,1.66-2.17,3.36-3.29,5.01c-1.51,2.21-2.11,4.63-1.94,7.28
	c0.13,2.2,0.5,2.43,2.67,1.6c0.29-0.11,0.61-0.14,1.11-0.26c0.19,0.52,0.48,1,0.52,1.49c0.06,0.88,0.12,1.8-0.09,2.63
	c-0.85,3.33,0.17,6.51,0.62,9.74c0.07,0.44,0.59,1.06,0.98,1.13c0.37,0.06,1.04-0.4,1.23-0.8c0.45-0.93,0.91-1.93,0.99-2.94
	c0.15-2.03,1.19-3.61,2.25-5.21c0.66-1,1.42-1.93,2.03-2.96c0.8-1.34,1.46-2.63,3.47-2.3c0.52,0.09,1.37-0.71,1.8-1.31
	c1.26-1.74,2.38-3.59,3.58-5.39c0.36-0.53,0.73-1.06,1.18-1.51c1.19-1.2,1.84-1.05,2.57,0.53c0.67,1.47,1.07,1.53,2.55,0.69
	c1.86-1.05,3.79-2.01,5.71-2.97c0.42-0.21,0.91-0.32,1.38-0.35c0.95-0.06,1.33,0.55,0.9,1.38c-0.15,0.28-0.4,0.5-0.59,0.75
	c-0.19,0.26-0.36,0.52-0.6,0.87c0.33,0.7,0.65,1.4,1.07,2.28c-0.49,0.29-0.9,0.63-1.37,0.79c-1.36,0.47-2.75,0.86-4.12,1.3
	c-1.04,0.33-1.67,0.97-1.34,2.15c0.34,1.26-0.31,1.78-1.41,1.99c-1.41,0.27-2.86,0.44-4.23,0.84c-2.46,0.7-4.91,1.41-7.29,2.33
	c-3.02,1.16-4.56,3.9-6.18,6.46c-0.22,0.36-0.05,1.1,0.16,1.56c0.52,1.18,0.11,1.97-0.81,2.7c-2.06,1.65-4.07,3.37-6.13,5.01
	c-3.43,2.75-5.25,6.6-7.2,10.36c-0.71,1.37-0.38,1.9,1,2.63c1.37,0.72,1.45,1.09,0.46,2.33c-0.3,0.37-0.68,0.68-0.99,1.05
	c-2.6,3.07-3.92,6.74-4.75,10.58c-0.42,1.91-0.27,2,1.52,2.85c0.93,0.45,1.04,1.1,0.85,1.96c-0.44,2.03-0.95,4.05-1.29,6.1
	c-0.17,1.07-0.17,2.21-0.03,3.3c0.29,2.29,0.75,4.57,1.08,6.86c0.13,0.84,0.26,1.67,1.19,1.88c0.95,0.23,1.5-0.5,1.84-1.23
	c1.38-2.96,2.71-5.96,4.06-8.94c0.22-0.51,0.33-1.09,0.63-1.54c0.49-0.75,1.25-0.72,1.73,0.03c0.21,0.33,0.26,0.77,0.46,1.1
	c0.59,0.99,1.39,1.11,2.09,0.21c0.53-0.68,0.89-1.51,1.22-2.32c0.96-2.28,1.86-4.59,2.8-6.88c0.25-0.59,0.54-1.17,0.91-1.69
	c0.78-1.1,1.29-1.11,2.26-0.13c1.54,1.55,2.06,1.42,2.95-0.66c2.13-5.03,4.95-9.67,8.09-14.11c0.4-0.56,0.94-1.14,1.55-1.41
	c0.9-0.39,1.15,0.56,1.6,1.08c0.61,0.7,1.27,0.55,1.84-0.09c0.21-0.23,0.35-0.52,0.51-0.8c1.99-3.37,3.95-6.75,5.97-10.1
	c0.38-0.64,0.96-1.15,1.58-1.87c0.44,0.55,0.71,0.81,0.91,1.13c0.95,1.59,1.67,1.63,2.71,0.03c1.04-1.61,1.97-3.29,2.99-4.92
	c0.77-1.23,0.89-1.27,2.74-1.65c-0.34,0.95-0.58,1.75-0.9,2.5c-0.6,1.39-1.32,2.74-1.87,4.15c-0.62,1.56-0.51,2.11,0.94,2.68
	c1.54,0.6,1.4,1.53,1.31,2.84c-0.22,2.95-0.26,5.91-0.21,8.86c0.03,1.59,0.85,1.87,2.2,0.96c1.62-1.09,2.04-0.96,2.57,0.96
	c0.87,3.15,1.62,6.35,2.51,9.5c0.5,1.76,1.04,3.54,1.85,5.18c1.06,2.14,2.45,2.25,3.76,0.28c1.54-2.32,2.94-4.75,4.22-7.24
	c1.12-2.19,1.97-4.53,3-6.79c0.17-0.38,0.68-0.92,0.94-0.87c0.45,0.09,0.94,0.5,1.2,0.92c0.38,0.59,0.47,1.38,0.87,1.95
	c0.27,0.4,0.91,0.83,1.3,0.76c0.36-0.07,0.83-0.76,0.86-1.21c0.11-1.51,0.16-3.04,0.02-4.55c-0.38-4.05-0.66-8.13-1.96-12.04
	c-0.1-0.3-0.23-0.63-0.19-0.93c0.05-0.36,0.18-0.85,0.44-1c0.26-0.15,0.85-0.09,1.07,0.12c0.58,0.53,1,1.24,1.57,1.79
	c0.31,0.31,0.89,0.71,1.16,0.6c0.44-0.17,0.98-0.71,1.02-1.13c0.09-0.93,0.05-1.93-0.21-2.83c-0.68-2.38-1.53-4.71-2.26-7.07
	c-0.26-0.85-0.36-1.75-0.54-2.63c1.4-0.34,1.69,0.53,2.13,1.16c3.95,5.64,7.2,11.69,10.3,17.82c1.8,3.57,3.3,7.3,5.28,10.76
	c1.6,2.79,2.96,5.66,4.07,8.66c2.2,5.92,4.32,11.86,6.61,17.74c0.96,2.45,2.16,4.82,3.41,7.14c2.21,4.13,3.46,8.6,4.7,13.06
	c2.62,9.4,5.1,18.83,7.71,28.22c0.79,2.85,1.97,5.58,2.74,8.43c1.1,4.08,2.04,8.21,2.96,12.34c2.11,9.52,4.11,19.06,6.25,28.57
	c1.16,5.15,2.54,10.24,3.75,15.37c0.32,1.39,0.4,2.85,0.51,4.28c0.93,8.22,1.67,14.72,2.23,19.62c0.28-0.01,0.55-0.02,0.82-0.03
	c3.11-0.08,6.28,0.3,9.32-0.16c5.03-0.76,9.73-2.64,13.57-6.11c1.31-1.18,2.61-1.55,4.3-1.58c8.82-0.16,17.31-1.85,25.22-5.87
	c2.73-1.4,4.97-3.46,6.49-6.21c0.65-1.16,0.88-2.33,0.81-3.67c-0.22-4.54-0.52-9.1-0.43-13.64c0.13-7.19,0.55-14.36,0.85-21.55
	c0.01-0.32,0.03-0.63,0.04-0.95c0.07-5.35,0.07-10.71,0.22-16.05c0.12-4.23,0.46-8.45,0.62-12.68c0.14-3.52,0.07-7.04,0.24-10.55
	c0.22-4.47,0.62-8.92,0.88-13.39c0.39-6.45,0.64-12.92,1.09-19.37c0.45-6.53,1.15-13.04,1.63-19.57c0.64-8.8,2.38-17.4,4.26-26
	c0.62-2.88,0.84-5.85,1.3-8.77c0.27-1.73,0.69-3.44,0.98-5.17c2.1-12.37,4.04-24.77,6.34-37.11c1.04-5.56,2.8-10.98,4.21-16.47
	c1.48-5.73,2.85-11.49,4.43-17.19c2.7-9.77,4.94-19.68,9.26-28.95c2.8-6.01,5.17-12.22,7.75-18.32c0.48-1.14,0.86-2.43,2.74-2.63
	c0,0.74,0.04,1.33,0,1.91c-0.4,5.89-0.88,11.77-1.2,17.67c-0.14,2.45,0.06,2.46,2.4,3.34c0.5,0.19,0.94,0.77,1.18,1.28
	c0.22,0.48,0.13,1.1,0.18,1.66c0.38,3.57,0.69,7.15,1.15,10.71c0.34,2.7,0.87,5.37,1.33,8.04c0.1,0.55,0.21,1.12,0.44,1.61
	c0.64,1.36,1.78,1.53,2.89,0.5c0.12-0.11,0.22-0.23,0.33-0.35c1.93-2.17,2.05-2.18,3.41,0.25c2.57,4.6,6.41,8.13,10.06,11.8
	c1.35,1.36,2.83,2.59,4.28,3.84c0.54,0.46,1.11,0.95,1.76,1.2c1.03,0.41,1.87-0.11,2.27-1.49c0.51-1.76,0.9-3.56,1.28-5.36
	c1.45-6.98,2.33-14.02,2.6-21.15c0.01-0.24-0.01-0.48,0.02-0.72c0.19-1.39,0.67-1.68,1.9-1.14c0.22,0.09,0.42,0.24,0.62,0.37
	c0.71,0.46,1.58,0.85,2.19,0.17c0.46-0.51,0.77-1.45,0.67-2.13c-0.51-3.32-1.37-6.57-2.96-9.57c-1.2-2.26-2.42-4.5-3.6-6.77
	c-0.13-0.25-0.09-0.59-0.16-1.2c0.84,0.09,1.51,0.19,2.19,0.22c1.52,0.07,2.24-0.77,1.83-2.25c-0.27-0.98-0.71-1.91-1.12-2.98
	c1.22-0.41,1.82,0.32,2.4,0.88c0.91,0.9,1.73,1.89,2.62,2.81c0.44,0.45,0.91,0.92,1.44,1.25c1.13,0.68,2.14,0.25,2.26-1.06
	c0.12-1.42-0.02-2.86-0.08-4.29c-0.01-0.47-0.24-0.95-0.21-1.41c0.05-0.81,0.59-1.1,1.34-0.88c0.3,0.09,0.59,0.27,0.83,0.47
	c5.05,4.09,9.81,8.45,13.27,14.05c0.62,1,1.36,2.01,2.27,2.74c1.84,1.48,3.65,0.67,3.92-1.67c0.1-0.87-0.05-1.77,0.06-2.63
	c0.07-0.49,0.34-1.21,0.7-1.34c0.38-0.15,1.11,0.12,1.47,0.45c1.24,1.12,2.5,2.26,3.55,3.56c3.26,4.04,6.4,8.18,9.66,12.22
	c1.55,1.93,3.23,3.74,4.9,5.57c0.66,0.72,1.48,1.33,2.54,0.88c1.11-0.46,1.39-1.45,1.39-2.57c-0.01-0.85,0-1.7,0-2.42
	c1.03-0.62,1.56-0.11,2.08,0.41c3.51,3.63,6.69,7.52,9.42,11.77c0.77,1.19,1.73,2.32,2.8,3.23c1.39,1.18,2.53,0.65,2.9-1.15
	c0.1-0.46,0.04-0.96,0.13-1.43c0.08-0.44,0.27-0.86,0.39-1.23c1.28-0.27,1.68,0.61,2.18,1.3c3.17,4.31,6.32,8.64,9.51,12.93
	c0.71,0.96,1.47,1.94,2.39,2.66c1.77,1.38,3.62,0.58,3.72-1.63C778.05,231.39,778.13,228.54,777.24,225.7z M777.24,225.7
	c-1.76-5.57-3.57-11.11-6.45-16.23c-0.51-0.9-1.16-1.72-1.68-2.61c-0.7-1.19-0.33-1.85,1.01-1.81c0.31,0,0.63,0.15,0.94,0.15
	c1.22-0.02,1.8-0.74,1.4-1.87c-0.26-0.74-0.7-1.44-1.14-2.1c-3.3-4.84-6.97-9.36-11.83-12.76c-1.23-0.86-2.62-1.51-3.88-2.34
	c-0.41-0.27-0.9-0.85-0.86-1.24c0.03-0.39,0.65-0.77,1.08-1.06c0.24-0.16,0.63-0.11,0.92-0.21c1.53-0.56,1.83-1.37,1-2.74
	c-0.29-0.48-0.61-0.95-1-1.35c-3.26-3.32-6.68-6.41-10.87-8.58c-2.83-1.47-5.53-3.2-8.36-4.69c-1.47-0.77-3.1-1.25-4.66-1.86
	c-0.51-0.21-1.08-0.34-1.54-0.64c-0.28-0.19-0.6-0.71-0.52-0.96c0.12-0.38,0.53-0.87,0.89-0.93c0.93-0.18,1.94-0.02,2.85-0.25
	c0.7-0.17,1.68-0.63,1.84-1.17c0.14-0.5-0.52-1.42-1.05-1.88c-0.65-0.55-1.5-0.91-2.33-1.2c-5.36-1.84-10.64-3.93-16.25-4.99
	c-3.25-0.61-6.5-0.78-9.78-0.44c-1.47,0.15-2.99,0.5-4.65-0.45c0.35-0.61,0.62-1.13,0.94-1.63c1.19-1.89,0.76-3.24-1.44-3.72
	c-1.45-0.32-3.01-0.34-4.51-0.26c-3.75,0.22-7.51,0.44-11.22,0.94c-2.76,0.37-5.45,1.18-8.18,1.79c-0.81,0.18-1.62,0.35-2.43,0.53
	c-0.1-0.14-0.2-0.29-0.29-0.43c0.24-0.42,0.38-1,0.74-1.23c4.51-2.95,9.22-5.16,14.84-4.18c0.78,0.14,1.6,0.08,2.4,0.08
	c0.9,0,1.85-0.02,2.19-1.06c0.34-1.04-0.43-1.69-1.12-2.19c-1.17-0.82-2.43-1.52-3.67-2.24c-0.8-0.46-2.15-0.57-1.96-1.76
	c0.22-1.43,1.63-0.89,2.59-1c5.38-0.59,10.27,0.96,14.94,3.46c0.7,0.37,1.45,0.73,2.22,0.86c1.38,0.23,2.07-0.61,1.8-2.01
	c-0.14-0.72-0.29-1.44-0.43-2.17c0.16-0.11,0.32-0.23,0.48-0.35c0.67,0.35,1.41,0.6,1.98,1.06c2.34,1.93,4.62,3.94,6.93,5.9
	c1.16,0.97,2.27,2.03,3.54,2.84c1.77,1.13,2.65,0.88,4.01-0.79c0.85-1.03,1.37-1.05,2.46,0.26c2.69,3.27,5.36,6.56,7.92,9.93
	c1.21,1.58,2.14,3.37,3.2,5.06c0.5,0.8,0.88,1.92,2.07,1.64c1.18-0.28,1.51-1.4,1.53-2.47c0.04-2.71,0.21-5.45-0.08-8.13
	c-0.39-3.49-1.19-6.93-1.77-10.39c-0.13-0.73-0.12-1.49-0.19-2.57c0.98,0.25,1.56,0.42,2.15,0.54c1.54,0.34,2.7-0.83,1.95-2.18
	c-1.88-3.41-2.9-7.28-5.77-10.17c-3.17-3.2-6.49-6.16-10.66-8.02c-0.15-0.06-0.32-0.11-0.42-0.22c-0.35-0.39-0.66-0.81-0.99-1.21
	c0.51-0.29,0.99-0.74,1.52-0.82c0.78-0.12,1.61,0.14,2.38,0c0.44-0.09,0.97-0.58,1.14-1.02c0.11-0.29-0.26-0.91-0.58-1.18
	c-0.54-0.46-1.19-0.81-1.84-1.11c-6.97-3.25-14.22-5.27-22.01-5.03c-2.7,0.08-5.42-0.23-8.13-0.29c-1.27-0.02-2.55,0.1-3.82,0.2
	c-1.64,0.11-1.96-0.07-2.48-1.56c-0.67-1.92-1.2-2.3-3.17-1.78c-1.38,0.37-2.78,0.82-4.01,1.52c-2.97,1.71-5.86,3.57-8.75,5.41
	c-0.75,0.48-1.48,0.74-2.21,0.17c-1.25-0.98-2.17-0.35-3.19,0.44c-4.75,3.65-8.1,8.33-10.23,13.92c-0.53,1.39-0.52,1.39-1.83,1.95
	c-0.15-0.44-0.37-0.85-0.42-1.29c-0.49-4.52-0.82-9.07-1.45-13.57c-0.82-5.91-3.6-11.07-6.85-15.95c-1.01-1.51-2.35-2.87-4.63-2.12
	c-0.45,0.15-1.29-0.43-1.75-0.88c-0.86-0.83-1.52-1.85-2.34-2.73c-3.16-3.42-7.16-5.56-11.35-7.43c-1.05-0.47-1.74-0.35-2.34,0.77
	c-0.81,1.5-1.23,1.62-2.57,0.67c-3.64-2.57-7.83-3.98-11.8-5.84c-1.51-0.71-3-1.48-4.46-2.3c-1.18-0.68-2.3-0.96-3.48-0.24
	c-0.19,2.04,2.53,2.46,2.08,4.78c-0.94-0.13-1.84-0.2-2.72-0.39c-4.21-0.94-8.37-2.1-12.75-2.01c-3.07,0.07-6.02,0.72-8.93,1.64
	c-0.46,0.15-0.9,0.35-1.32,0.57c-0.81,0.42-1.52,0.97-1.48,1.99c0.04,1.04,0.8,1.57,1.68,1.81c2.54,0.69,5.07,1.47,7.66,1.91
	c3.96,0.68,7.82,1.67,11.59,3.01c1.91,0.69,2.06,1.46,0.6,2.85c-0.29,0.27-0.62,0.51-0.87,0.82c-1.39,1.74-0.75,3.45,1.46,3.86
	c1.8,0.33,3.68,0.42,5.42,0.94c2.36,0.7,4.66,1.65,6.93,2.6c0.96,0.41,1.21,1.23,0.47,2.15c-0.25,0.31-0.52,0.62-0.71,0.97
	c-0.63,1.16-0.52,1.98,0.6,2.67c1.08,0.66,2.28,1.18,3.48,1.59c2.16,0.75,4,1.93,5.6,3.57c1.01,1.02,2.15,1.91,3.17,2.91
	c0.52,0.51,0.9,1.16,1.42,1.84c-0.55,0.34-0.8,0.54-1.08,0.65c-2.19,0.88-2.39,1.59-0.79,3.15c1.43,1.4,2.95,2.7,4.4,4.07
	c0.7,0.65,1.39,1.32,2,2.06c0.26,0.31,0.3,0.81,0.43,1.21c-1.03,0.57-1.52-0.13-1.96-0.62c-3.35-3.77-7.73-5.84-12.34-7.57
	c-1.3-0.48-2.41-0.74-3.36,0.65c-0.72,1.06-1.67,0.6-2.56,0.17c-2.74-1.33-5.43-2.76-8.22-3.94c-3.67-1.56-7.43-2.92-11.15-4.36
	c-1.49-0.58-2.96-1.24-4.49-1.66c-1.44-0.41-2.96-0.8-4.43-0.76c-2.31,0.05-3.08,1.54-2.04,3.6c0.43,0.86,1.09,1.59,1.49,2.46
	c0.19,0.42,0.15,1.07-0.05,1.49c-0.09,0.19-0.92,0.21-1.28,0.04c-4.95-2.4-10.4-2.4-15.66-3.28c-5.13-0.86-10.3-1.32-15.52-1.05
	c-1.43,0.07-2.88,0.15-4.28,0.46c-2.55,0.56-3.16,2.22-1.8,4.43c0.39,0.64,0.71,1.32,1.29,2.43c-1.16,0.05-1.83,0.16-2.48,0.08
	c-4.67-0.52-9.08,0.23-13.16,2.62c-1.59,0.93-3.13,1.93-4.7,2.88c-2.88,1.73-4.65,4.33-5.83,7.39c-0.59,1.52-0.36,2,1.16,2.46
	c0.51,0.15,1.02,0.32,1.95,0.61c-0.66,0.79-1.02,1.5-1.59,1.89c-5.77,3.9-10.23,9.14-14.74,14.32c-2.51,2.9-4.93,5.89-6.62,9.38
	c-0.17,0.36-0.4,0.69-0.59,1.04c-0.45,0.83-0.7,1.7,0.17,2.38c0.84,0.66,1.5,0.02,2.07-0.54c4.58-4.41,10.31-6.93,15.92-9.64
	c1.48-0.71,3.01-1.32,5.08-2.23c-0.3,1.16-0.38,1.75-0.61,2.26c-0.25,0.59-0.67,1.09-0.95,1.66c-0.38,0.78-0.5,1.71,0.33,2.13
	c0.49,0.25,1.5,0.12,1.92-0.25c2.86-2.47,6.26-3.35,9.87-3.97c2.58-0.44,5.05-1.53,7.62-2.08c1.85-0.39,3.79-0.47,5.7-0.47
	c1.34-0.01,1.61,0.64,1.02,1.91c-0.13,0.29-0.41,0.54-0.46,0.83c-0.09,0.52-0.25,1.21,0,1.54c0.24,0.33,1,0.51,1.47,0.42
	c6.49-1.3,13.05-2.29,19.43-4.16c2.74-0.8,5.65-1.07,8.49-1.52c0.49-0.08,1.03,0.13,1.97,0.27c-0.62,0.9-1.06,1.51-1.46,2.14
	c-0.8,1.27-0.34,2.25,1.14,2.24c0.94,0,1.91-0.22,2.82-0.49c5.64-1.73,11.44-2.19,17.29-2.28h0.96c1,0.01,1.93,0.06,2.14,1.37
	c0.27,1.68-0.1,2.6-1.42,3.14c-2.07,0.84-4.16,1.61-6.18,2.52c-0.71,0.32-1.33,0.9-1.89,1.46c-1.23,1.24-1.05,2.04,0.52,2.65
	c0.14,0.06,0.34,0.03,0.46,0.11c0.43,0.29,1.23,0.69,1.18,0.92c-0.09,0.53-0.51,1.11-0.95,1.45c-4.97,3.86-9.39,8.2-12.43,13.78
	c-0.53,0.98-1,2.01-1.36,3.07c-0.23,0.66-0.33,1.41-0.27,2.11c0.1,1.36,1.08,1.78,2.17,0.93c0.81-0.64,1.44-1.52,2.27-2.13
	c0.42-0.3,1.12-0.23,1.7-0.32c-0.07,0.58,0.08,1.31-0.22,1.71c-3.94,5.18-5.88,11.32-8.35,17.2c-1.02,2.44-0.66,5.05-0.55,7.59
	c0.06,1.25,0.65,1.55,1.99,1.42c0.46-0.04,0.91-0.14,1.62-0.25c0,0.99,0.05,1.81-0.01,2.63c-0.42,5.66-0.79,11.32,0.32,16.95
	c0.15,0.78,0.39,1.57,0.77,2.25c0.63,1.12,1.49,1.14,2.27,0.13c0.29-0.37,0.48-0.82,0.67-1.26c1.63-3.73,3.26-7.47,4.87-11.21
	c0.69-1.61,1.3-3.26,2.06-4.85c0.24-0.51,0.75-1.05,1.26-1.22c0.27-0.1,0.9,0.49,1.19,0.9c0.66,0.91,1.19,2.07,2.57,1.68
	c1.27-0.36,1.46-1.56,1.68-2.68c0.55-2.74,1.12-5.48,1.7-8.22c0.2-0.94,0.36-1.9,0.71-2.78c0.21-0.52,0.69-1.05,1.19-1.27
	c0.21-0.09,0.8,0.59,1.15,0.98c0.26,0.28,0.37,0.71,0.63,1.01c0.67,0.76,1.35,0.73,1.97-0.13c0.32-0.44,0.54-0.98,0.75-1.49
	c1.61-4,3.2-8.02,4.84-12.01c0.45-1.11,0.98-2.19,1.61-3.21c0.38-0.62,1-1.09,1.63-1.75c0.44,0.57,0.71,0.84,0.89,1.17
	c1.06,1.88,1.8,1.9,3.05,0.15c2.22-3.12,4.29-6.38,6.78-9.28c4.07-4.72,8.53-9.07,13.79-12.51c0.41-0.26,0.97-0.28,1.53-0.44
	c0.57,1.44-0.21,2.36-0.72,3.29c-1.84,3.37-3.69,6.73-5.63,10.03c-2.9,4.95-4.42,10.44-6.24,15.81c-1.48,4.39-2.89,8.8-4.4,13.18
	c-0.44,1.28-1.03,2.53-1.7,3.7c-3.82,6.72-6.28,13.98-8.61,21.3c-1.62,5.1-3.33,10.18-5.01,15.26c-0.23,0.68-0.5,1.36-0.86,1.98
	c-2.32,3.99-3.41,8.43-4.71,12.79c-1.89,6.35-3.77,12.7-5.63,19.06c-0.83,2.84-1.56,5.7-2.38,8.54c-0.85,2.91-1.7,5.83-2.65,8.71
	c-1.67,5.03-2.42,10.25-3.37,15.44c-1.25,6.83-2.47,13.67-3.7,20.51c-0.65,3.62-1.25,7.24-1.97,10.85c-0.99,5.01-2.11,10-3.11,15.02
	c-1.26,6.26-2.54,12.53-3.64,18.82c-1.47,8.42-2.89,16.86-4.13,25.31c-1.02,6.96-1.85,13.95-2.58,20.94
	c-0.54,5.16-0.78,10.35-1.18,15.52c-0.04,0.6-0.25,1.18-0.49,2.23c-0.66-0.68-1.13-0.97-1.3-1.39c-0.27-0.66-0.34-1.39-0.48-2.1
	c-2.21-11.18-5.49-21.99-10.39-32.33c-2.21-4.68-3.9-9.62-5.57-14.53c-2.22-6.54-5.06-12.78-8.37-18.82
	c-1.19-2.17-2.36-4.37-3.34-6.63c-3.3-7.56-6.98-14.91-11.58-21.78c-1.33-1.98-2.51-4.1-3.51-6.27c-1.76-3.8-4.11-7.21-6.46-10.64
	c-3.33-4.88-6.44-9.92-9.78-14.8c-1.57-2.31-3.26-4.59-5.23-6.54c-2.62-2.58-4.68-5.46-6.18-8.76c-1.94-4.27-4.79-7.91-7.68-11.54
	c-0.45-0.57-0.75-1.26-1.12-1.9c0.12-0.16,0.23-0.32,0.34-0.49c0.65,0.09,1.39,0.01,1.94,0.3c2.74,1.46,5.44,3,8.13,4.55
	c1.18,0.68,2.24,1.58,3.46,2.14c0.81,0.37,1.85,0.55,2.73,0.43c1.15-0.17,1.85,0.17,2.37,1.12c1.18,2.09,2.35,4.19,3.54,6.28
	c0.55,0.97,1.03,2,1.71,2.87c0.96,1.21,1.69,1.1,2.62-0.18c1.14-1.57,1.74-1.52,2.55,0.3c0.75,1.68,1.36,3.42,2.17,5.07
	c1.06,2.13,1.3,2.2,3.37,1.08c1.22-0.67,1.81,0.04,2.3,0.91c1.15,2.06,2.66,3.79,4.58,5.14c0.53,0.37,1.06,0.76,1.64,0.99
	c1.74,0.69,3-0.04,2.84-1.9c-0.2-2.45-0.75-4.88-1.18-7.31c-0.13-0.68-0.35-1.35-0.56-2.16c2.93-0.81,3.21-1.21,2.83-3.95
	c-0.62-4.48-3.05-7.81-6.68-10.37c-0.93-0.66-2.13-1.08-2.62-2.56c0.61-0.05,1.04-0.08,1.47-0.11c1.49-0.08,1.97-0.82,1.38-2.19
	c-0.15-0.36-0.37-0.72-0.63-1.01c-3.56-4.08-7.41-7.74-12.74-9.43c-1.65-0.52-1.76-1.13-0.51-2.24c0.34-0.31,0.71-0.6,1.08-0.91
	c-0.26-1.79-1.66-2.24-2.94-2.43c-3.02-0.43-4.9-2.94-7.62-3.89c-0.27-0.09-0.38-0.62-0.77-1.31c1.04-0.18,1.84-0.42,2.64-0.45
	c5.16-0.23,10.18,0.84,15.23,1.7c0.63,0.1,1.28,0.35,1.88,0.27c0.56-0.08,1.24-0.4,1.52-0.84c0.18-0.27-0.16-1.07-0.49-1.43
	c-0.64-0.7-1.46-1.23-2.16-1.88c-0.22-0.19-0.31-0.52-0.65-1.13c0.86-0.16,1.5-0.42,2.14-0.39c5.26,0.18,10.56-0.46,15.78,0.77
	c0.92,0.22,1.91,0.21,2.86,0.18c1.7-0.04,2.11-0.57,1.89-2.23c-0.24-1.89-0.08-2.3,1.74-2.08c3.39,0.4,6.76,1.09,10.13,1.7
	c1.26,0.23,2.48,0.68,3.74,0.86c0.55,0.08,1.38-0.08,1.67-0.45c0.27-0.34,0.03-1.12-0.07-1.69c-0.08-0.51-0.29-1-0.59-1.98
	c1.19,0.24,2.02,0.3,2.77,0.57c3.53,1.28,7.03,2.64,10.55,3.94c0.75,0.27,1.54,0.53,2.32,0.57c0.56,0.03,1.39-0.15,1.64-0.54
	c0.27-0.4,0.07-1.18-0.09-1.75c-0.13-0.44-0.47-0.83-0.77-1.2c-2.45-3-5.29-5.58-8.6-7.55c-2.33-1.39-4.82-2.51-7.26-3.72
	c-1.71-0.86-1.83-0.94-1.02-2.65c0.59-1.25,0.03-1.99-0.82-2.68c-2.04-1.64-4.42-2.64-6.98-2.99c-2.59-0.35-5.24-0.39-7.86-0.54
	c-0.8-0.05-1.6,0.03-2.4,0c-1.89-0.09-1.98-0.2-1.89-2.12c0.07-1.64-0.36-2.21-2.03-2.21c-1.34,0-2.71,0.2-4.03,0.46
	c-3.06,0.59-6.11,1.25-9.14,1.95c-2.87,0.65-5.17,2.46-7.61,3.95c-0.64,0.39-1.26,0.81-2.36,1.53c-0.02-1.25-0.06-1.91-0.05-2.57
	c0.03-2.14-0.79-2.75-2.59-1.73c-4.8,2.72-9.68,5.31-13.87,8.97c-0.78,0.68-1.48,1.45-2.18,2.21c-0.72,0.8-1.36,0.86-2.25,0.15
	c-1.52-1.22-1.89-1.19-3.24,0.06c-1,0.92-1.9,1.95-2.85,2.92c-0.54,0.54-1.11,1.05-1.73,1.64c-0.88-0.98-0.36-1.74-0.13-2.43
	c0.31-0.96,0.43-1.83-0.22-2.72c-0.76-1.02-0.39-1.96,0.37-2.81c1.86-2.09,3.69-4.21,5.59-6.25c1.43-1.54,1.52-1.52,0.64-3.44
	c-0.54-1.17-0.03-1.9,0.91-2.35c1.5-0.72,3.07-1.33,4.63-1.93c1.2-0.46,2.45-0.76,3.62-1.26c0.68-0.28,1.33-0.91,0.91-1.69
	c-0.23-0.42-0.99-0.69-1.55-0.77c-0.66-0.1-1.36,0.08-2.07,0.15c-0.53-1.56,0.47-2.11,1.31-2.63c3.13-1.92,6.31-3.77,9.45-5.68
	c0.91-0.55,2.36-0.9,2.05-2.3c-0.32-1.41-1.75-1.09-2.84-1.16c-4.56-0.29-8.86,0.91-13.16,2.21c-0.73,0.23-1.66,0.51-2.28,0.25
	c-1.26-0.54-2.29-0.25-3.43,0.24c-3.48,1.51-6.77,3.27-8.99,6.53c-0.64,0.94-1.64,1.22-2.74,1.17c-1.22-0.06-2.22,0.33-2.86,1.39
	c-1.72,2.88-3.46,5.75-5.1,8.68c-0.5,0.89-0.65,1.97-1.03,2.93c-0.37,0.94-1.04,1.15-1.9,0.58c-0.07-0.05-0.14-0.09-0.19-0.15
	c-0.71-0.66-1.41-1.42-2.51-0.89c-1.2,0.58-1.8,1.67-1.78,2.92c0.03,2.79,0.05,5.6,0.41,8.36c0.31,2.36,1.09,4.66,1.64,6.99
	c0.11,0.44,0.13,0.9-0.19,1.65c-0.49-0.41-1.03-0.77-1.47-1.23c-1.93-2.01-3.79-4.11-5.77-6.08c-1.87-1.86-2.69-1.94-5-0.63
	c-0.99,0.56-1.6,0.16-2.34-0.44c-1.48-1.22-2.95-2.46-4.57-3.49c-1.12-0.71-2.43-1.25-3.73-1.54c-1.71-0.37-2.49,0.59-2.19,2.36
	c0.39,2.29,0.09,2.66-2.32,2.39c-3.97-0.44-7.9-0.22-11.55,1.39c-4.69,2.06-8.44,5.39-11.27,9.71c-0.64,0.97-0.83,1.95,0.04,2.84
	c0.9,0.93,0.5,1.7-0.08,2.55c-1.12,1.66-2.17,3.36-3.29,5.01c-1.51,2.21-2.11,4.63-1.94,7.28c0.13,2.2,0.5,2.43,2.67,1.6
	c0.29-0.11,0.61-0.14,1.11-0.26c0.19,0.52,0.48,1,0.52,1.49c0.06,0.88,0.12,1.8-0.09,2.63c-0.85,3.33,0.17,6.51,0.62,9.74
	c0.07,0.44,0.59,1.06,0.98,1.13c0.37,0.06,1.04-0.4,1.23-0.8c0.45-0.93,0.91-1.93,0.99-2.94c0.15-2.03,1.19-3.61,2.25-5.21
	c0.66-1,1.42-1.93,2.03-2.96c0.8-1.34,1.46-2.63,3.47-2.3c0.52,0.09,1.37-0.71,1.8-1.31c1.26-1.74,2.38-3.59,3.58-5.39
	c0.36-0.53,0.73-1.06,1.18-1.51c1.19-1.2,1.84-1.05,2.57,0.53c0.67,1.47,1.07,1.53,2.55,0.69c1.86-1.05,3.79-2.01,5.71-2.97
	c0.42-0.21,0.91-0.32,1.38-0.35c0.95-0.06,1.33,0.55,0.9,1.38c-0.15,0.28-0.4,0.5-0.59,0.75c-0.19,0.26-0.36,0.52-0.6,0.87
	c0.33,0.7,0.65,1.4,1.07,2.28c-0.49,0.29-0.9,0.63-1.37,0.79c-1.36,0.47-2.75,0.86-4.12,1.3c-1.04,0.33-1.67,0.97-1.34,2.15
	c0.34,1.26-0.31,1.78-1.41,1.99c-1.41,0.27-2.86,0.44-4.23,0.84c-2.46,0.7-4.91,1.41-7.29,2.33c-3.02,1.16-4.56,3.9-6.18,6.46
	c-0.22,0.36-0.05,1.1,0.16,1.56c0.52,1.18,0.11,1.97-0.81,2.7c-2.06,1.65-4.07,3.37-6.13,5.01c-3.43,2.75-5.25,6.6-7.2,10.36
	c-0.71,1.37-0.38,1.9,1,2.63c1.37,0.72,1.45,1.09,0.46,2.33c-0.3,0.37-0.68,0.68-0.99,1.05c-2.6,3.07-3.92,6.74-4.75,10.58
	c-0.42,1.91-0.27,2,1.52,2.85c0.93,0.45,1.04,1.1,0.85,1.96c-0.44,2.03-0.95,4.05-1.29,6.1c-0.17,1.07-0.17,2.21-0.03,3.3
	c0.29,2.29,0.75,4.57,1.08,6.86c0.13,0.84,0.26,1.67,1.19,1.88c0.95,0.23,1.5-0.5,1.84-1.23c1.38-2.96,2.71-5.96,4.06-8.94
	c0.22-0.51,0.33-1.09,0.63-1.54c0.49-0.75,1.25-0.72,1.73,0.03c0.21,0.33,0.26,0.77,0.46,1.1c0.59,0.99,1.39,1.11,2.09,0.21
	c0.53-0.68,0.89-1.51,1.22-2.32c0.96-2.28,1.86-4.59,2.8-6.88c0.25-0.59,0.54-1.17,0.91-1.69c0.78-1.1,1.29-1.11,2.26-0.13
	c1.54,1.55,2.06,1.42,2.95-0.66c2.13-5.03,4.95-9.67,8.09-14.11c0.4-0.56,0.94-1.14,1.55-1.41c0.9-0.39,1.15,0.56,1.6,1.08
	c0.61,0.7,1.27,0.55,1.84-0.09c0.21-0.23,0.35-0.52,0.51-0.8c1.99-3.37,3.95-6.75,5.97-10.1c0.38-0.64,0.96-1.15,1.58-1.87
	c0.44,0.55,0.71,0.81,0.91,1.13c0.95,1.59,1.67,1.63,2.71,0.03c1.04-1.61,1.97-3.29,2.99-4.92c0.77-1.23,0.89-1.27,2.74-1.65
	c-0.34,0.95-0.58,1.75-0.9,2.5c-0.6,1.39-1.32,2.74-1.87,4.15c-0.62,1.56-0.51,2.11,0.94,2.68c1.54,0.6,1.4,1.53,1.31,2.84
	c-0.22,2.95-0.26,5.91-0.21,8.86c0.03,1.59,0.85,1.87,2.2,0.96c1.62-1.09,2.04-0.96,2.57,0.96c0.87,3.15,1.62,6.35,2.51,9.5
	c0.5,1.76,1.04,3.54,1.85,5.18c1.06,2.14,2.45,2.25,3.76,0.28c1.54-2.32,2.94-4.75,4.22-7.24c1.12-2.19,1.97-4.53,3-6.79
	c0.17-0.38,0.68-0.92,0.94-0.87c0.45,0.09,0.94,0.5,1.2,0.92c0.38,0.59,0.47,1.38,0.87,1.95c0.27,0.4,0.91,0.83,1.3,0.76
	c0.36-0.07,0.83-0.76,0.86-1.21c0.11-1.51,0.16-3.04,0.02-4.55c-0.38-4.05-0.66-8.13-1.96-12.04c-0.1-0.3-0.23-0.63-0.19-0.93
	c0.05-0.36,0.18-0.85,0.44-1c0.26-0.15,0.85-0.09,1.07,0.12c0.58,0.53,1,1.24,1.57,1.79c0.31,0.31,0.89,0.71,1.16,0.6
	c0.44-0.17,0.98-0.71,1.02-1.13c0.09-0.93,0.05-1.93-0.21-2.83c-0.68-2.38-1.53-4.71-2.26-7.07c-0.26-0.85-0.36-1.75-0.54-2.63
	c1.4-0.34,1.69,0.53,2.13,1.16c3.95,5.64,7.2,11.69,10.3,17.82c1.8,3.57,3.3,7.3,5.28,10.76c1.6,2.79,2.96,5.66,4.07,8.66
	c2.2,5.92,4.32,11.86,6.61,17.74c0.96,2.45,2.16,4.82,3.41,7.14c2.21,4.13,3.46,8.6,4.7,13.06c2.62,9.4,5.1,18.83,7.71,28.22
	c0.79,2.85,1.97,5.58,2.74,8.43c1.1,4.08,2.04,8.21,2.96,12.34c2.11,9.52,4.11,19.06,6.25,28.57c1.16,5.15,2.54,10.24,3.75,15.37
	c0.32,1.39,0.4,2.85,0.51,4.28c0.93,8.22,1.67,14.72,2.23,19.62c0.28-0.01,0.55-0.02,0.82-0.03c3.11-0.08,6.28,0.3,9.32-0.16
	c5.03-0.76,9.73-2.64,13.57-6.11c1.31-1.18,2.61-1.55,4.3-1.58c8.82-0.16,17.31-1.85,25.22-5.87c2.73-1.4,4.97-3.46,6.49-6.21
	c0.65-1.16,0.88-2.33,0.81-3.67c-0.22-4.54-0.52-9.1-0.43-13.64c0.13-7.19,0.55-14.36,0.85-21.55c0.01-0.32,0.03-0.63,0.04-0.95
	c0.07-5.35,0.07-10.71,0.22-16.05c0.12-4.23,0.46-8.45,0.62-12.68c0.14-3.52,0.07-7.04,0.24-10.55c0.22-4.47,0.62-8.92,0.88-13.39
	c0.39-6.45,0.64-12.92,1.09-19.37c0.45-6.53,1.15-13.04,1.63-19.57c0.64-8.8,2.38-17.4,4.26-26c0.62-2.88,0.84-5.85,1.3-8.77
	c0.27-1.73,0.69-3.44,0.98-5.17c2.1-12.37,4.04-24.77,6.34-37.11c1.04-5.56,2.8-10.98,4.21-16.47c1.48-5.73,2.85-11.49,4.43-17.19
	c2.7-9.77,4.94-19.68,9.26-28.95c2.8-6.01,5.17-12.22,7.75-18.32c0.48-1.14,0.86-2.43,2.74-2.63c0,0.74,0.04,1.33,0,1.91
	c-0.4,5.89-0.88,11.77-1.2,17.67c-0.14,2.45,0.06,2.46,2.4,3.34c0.5,0.19,0.94,0.77,1.18,1.28c0.22,0.48,0.13,1.1,0.18,1.66
	c0.38,3.57,0.69,7.15,1.15,10.71c0.34,2.7,0.87,5.37,1.33,8.04c0.1,0.55,0.21,1.12,0.44,1.61c0.64,1.36,1.78,1.53,2.89,0.5
	c0.12-0.11,0.22-0.23,0.33-0.35c1.93-2.17,2.05-2.18,3.41,0.25c2.57,4.6,6.41,8.13,10.06,11.8c1.35,1.36,2.83,2.59,4.28,3.84
	c0.54,0.46,1.11,0.95,1.76,1.2c1.03,0.41,1.87-0.11,2.27-1.49c0.51-1.76,0.9-3.56,1.28-5.36c1.45-6.98,2.33-14.02,2.6-21.15
	c0.01-0.24-0.01-0.48,0.02-0.72c0.19-1.39,0.67-1.68,1.9-1.14c0.22,0.09,0.42,0.24,0.62,0.37c0.71,0.46,1.58,0.85,2.19,0.17
	c0.46-0.51,0.77-1.45,0.67-2.13c-0.51-3.32-1.37-6.57-2.96-9.57c-1.2-2.26-2.42-4.5-3.6-6.77c-0.13-0.25-0.09-0.59-0.16-1.2
	c0.84,0.09,1.51,0.19,2.19,0.22c1.52,0.07,2.24-0.77,1.83-2.25c-0.27-0.98-0.71-1.91-1.12-2.98c1.22-0.41,1.82,0.32,2.4,0.88
	c0.91,0.9,1.73,1.89,2.62,2.81c0.44,0.45,0.91,0.92,1.44,1.25c1.13,0.68,2.14,0.25,2.26-1.06c0.12-1.42-0.02-2.86-0.08-4.29
	c-0.01-0.47-0.24-0.95-0.21-1.41c0.05-0.81,0.59-1.1,1.34-0.88c0.3,0.09,0.59,0.27,0.83,0.47c5.05,4.09,9.81,8.45,13.27,14.05
	c0.62,1,1.36,2.01,2.27,2.74c1.84,1.48,3.65,0.67,3.92-1.67c0.1-0.87-0.05-1.77,0.06-2.63c0.07-0.49,0.34-1.21,0.7-1.34
	c0.38-0.15,1.11,0.12,1.47,0.45c1.24,1.12,2.5,2.26,3.55,3.56c3.26,4.04,6.4,8.18,9.66,12.22c1.55,1.93,3.23,3.74,4.9,5.57
	c0.66,0.72,1.48,1.33,2.54,0.88c1.11-0.46,1.39-1.45,1.39-2.57c-0.01-0.85,0-1.7,0-2.42c1.03-0.62,1.56-0.11,2.08,0.41
	c3.51,3.63,6.69,7.52,9.42,11.77c0.77,1.19,1.73,2.32,2.8,3.23c1.39,1.18,2.53,0.65,2.9-1.15c0.1-0.46,0.04-0.96,0.13-1.43
	c0.08-0.44,0.27-0.86,0.39-1.23c1.28-0.27,1.68,0.61,2.18,1.3c3.17,4.31,6.32,8.64,9.51,12.93c0.71,0.96,1.47,1.94,2.39,2.66
	c1.77,1.38,3.62,0.58,3.72-1.63C778.05,231.39,778.13,228.54,777.24,225.7z M777.24,225.7c-1.76-5.57-3.57-11.11-6.45-16.23
	c-0.51-0.9-1.16-1.72-1.68-2.61c-0.7-1.19-0.33-1.85,1.01-1.81c0.31,0,0.63,0.15,0.94,0.15c1.22-0.02,1.8-0.74,1.4-1.87
	c-0.26-0.74-0.7-1.44-1.14-2.1c-3.3-4.84-6.97-9.36-11.83-12.76c-1.23-0.86-2.62-1.51-3.88-2.34c-0.41-0.27-0.9-0.85-0.86-1.24
	c0.03-0.39,0.65-0.77,1.08-1.06c0.24-0.16,0.63-0.11,0.92-0.21c1.53-0.56,1.83-1.37,1-2.74c-0.29-0.48-0.61-0.95-1-1.35
	c-3.26-3.32-6.68-6.41-10.87-8.58c-2.83-1.47-5.53-3.2-8.36-4.69c-1.47-0.77-3.1-1.25-4.66-1.86c-0.51-0.21-1.08-0.34-1.54-0.64
	c-0.28-0.19-0.6-0.71-0.52-0.96c0.12-0.38,0.53-0.87,0.89-0.93c0.93-0.18,1.94-0.02,2.85-0.25c0.7-0.17,1.68-0.63,1.84-1.17
	c0.14-0.5-0.52-1.42-1.05-1.88c-0.65-0.55-1.5-0.91-2.33-1.2c-5.36-1.84-10.64-3.93-16.25-4.99c-3.25-0.61-6.5-0.78-9.78-0.44
	c-1.47,0.15-2.99,0.5-4.65-0.45c0.35-0.61,0.62-1.13,0.94-1.63c1.19-1.89,0.76-3.24-1.44-3.72c-1.45-0.32-3.01-0.34-4.51-0.26
	c-3.75,0.22-7.51,0.44-11.22,0.94c-2.76,0.37-5.45,1.18-8.18,1.79c-0.81,0.18-1.62,0.35-2.43,0.53c-0.1-0.14-0.2-0.29-0.29-0.43
	c0.24-0.42,0.38-1,0.74-1.23c4.51-2.95,9.22-5.16,14.84-4.18c0.78,0.14,1.6,0.08,2.4,0.08c0.9,0,1.85-0.02,2.19-1.06
	c0.34-1.04-0.43-1.69-1.12-2.19c-1.17-0.82-2.43-1.52-3.67-2.24c-0.8-0.46-2.15-0.57-1.96-1.76c0.22-1.43,1.63-0.89,2.59-1
	c5.38-0.59,10.27,0.96,14.94,3.46c0.7,0.37,1.45,0.73,2.22,0.86c1.38,0.23,2.07-0.61,1.8-2.01c-0.14-0.72-0.29-1.44-0.43-2.17
	c0.16-0.11,0.32-0.23,0.48-0.35c0.67,0.35,1.41,0.6,1.98,1.06c2.34,1.93,4.62,3.94,6.93,5.9c1.16,0.97,2.27,2.03,3.54,2.84
	c1.77,1.13,2.65,0.88,4.01-0.79c0.85-1.03,1.37-1.05,2.46,0.26c2.69,3.27,5.36,6.56,7.92,9.93c1.21,1.58,2.14,3.37,3.2,5.06
	c0.5,0.8,0.88,1.92,2.07,1.64c1.18-0.28,1.51-1.4,1.53-2.47c0.04-2.71,0.21-5.45-0.08-8.13c-0.39-3.49-1.19-6.93-1.77-10.39
	c-0.13-0.73-0.12-1.49-0.19-2.57c0.98,0.25,1.56,0.42,2.15,0.54c1.54,0.34,2.7-0.83,1.95-2.18c-1.88-3.41-2.9-7.28-5.77-10.17
	c-3.17-3.2-6.49-6.16-10.66-8.02c-0.15-0.06-0.32-0.11-0.42-0.22c-0.35-0.39-0.66-0.81-0.99-1.21c0.51-0.29,0.99-0.74,1.52-0.82
	c0.78-0.12,1.61,0.14,2.38,0c0.44-0.09,0.97-0.58,1.14-1.02c0.11-0.29-0.26-0.91-0.58-1.18c-0.54-0.46-1.19-0.81-1.84-1.11
	c-6.97-3.25-14.22-5.27-22.01-5.03c-2.7,0.08-5.42-0.23-8.13-0.29c-1.27-0.02-2.55,0.1-3.82,0.2c-1.64,0.11-1.96-0.07-2.48-1.56
	c-0.67-1.92-1.2-2.3-3.17-1.78c-1.38,0.37-2.78,0.82-4.01,1.52c-2.97,1.71-5.86,3.57-8.75,5.41c-0.75,0.48-1.48,0.74-2.21,0.17
	c-1.25-0.98-2.17-0.35-3.19,0.44c-4.75,3.65-8.1,8.33-10.23,13.92c-0.53,1.39-0.52,1.39-1.83,1.95c-0.15-0.44-0.37-0.85-0.42-1.29
	c-0.49-4.52-0.82-9.07-1.45-13.57c-0.82-5.91-3.6-11.07-6.85-15.95c-1.01-1.51-2.35-2.87-4.63-2.12c-0.45,0.15-1.29-0.43-1.75-0.88
	c-0.86-0.83-1.52-1.85-2.34-2.73c-3.16-3.42-7.16-5.56-11.35-7.43c-1.05-0.47-1.74-0.35-2.34,0.77c-0.81,1.5-1.23,1.62-2.57,0.67
	c-3.64-2.57-7.83-3.98-11.8-5.84c-1.51-0.71-3-1.48-4.46-2.3c-1.18-0.68-2.3-0.96-3.48-0.24c-0.19,2.04,2.53,2.46,2.08,4.78
	c-0.94-0.13-1.84-0.2-2.72-0.39c-4.21-0.94-8.37-2.1-12.75-2.01c-3.07,0.07-6.02,0.72-8.93,1.64c-0.46,0.15-0.9,0.35-1.32,0.57
	c-0.81,0.42-1.52,0.97-1.48,1.99c0.04,1.04,0.8,1.57,1.68,1.81c2.54,0.69,5.07,1.47,7.66,1.91c3.96,0.68,7.82,1.67,11.59,3.01
	c1.91,0.69,2.06,1.46,0.6,2.85c-0.29,0.27-0.62,0.51-0.87,0.82c-1.39,1.74-0.75,3.45,1.46,3.86c1.8,0.33,3.68,0.42,5.42,0.94
	c2.36,0.7,4.66,1.65,6.93,2.6c0.96,0.41,1.21,1.23,0.47,2.15c-0.25,0.31-0.52,0.62-0.71,0.97c-0.63,1.16-0.52,1.98,0.6,2.67
	c1.08,0.66,2.28,1.18,3.48,1.59c2.16,0.75,4,1.93,5.6,3.57c1.01,1.02,2.15,1.91,3.17,2.91c0.52,0.51,0.9,1.16,1.42,1.84
	c-0.55,0.34-0.8,0.54-1.08,0.65c-2.19,0.88-2.39,1.59-0.79,3.15c1.43,1.4,2.95,2.7,4.4,4.07c0.7,0.65,1.39,1.32,2,2.06
	c0.26,0.31,0.3,0.81,0.43,1.21c-1.03,0.57-1.52-0.13-1.96-0.62c-3.35-3.77-7.73-5.84-12.34-7.57c-1.3-0.48-2.41-0.74-3.36,0.65
	c-0.72,1.06-1.67,0.6-2.56,0.17c-2.74-1.33-5.43-2.76-8.22-3.94c-3.67-1.56-7.43-2.92-11.15-4.36c-1.49-0.58-2.96-1.24-4.49-1.66
	c-1.44-0.41-2.96-0.8-4.43-0.76c-2.31,0.05-3.08,1.54-2.04,3.6c0.43,0.86,1.09,1.59,1.49,2.46c0.19,0.42,0.15,1.07-0.05,1.49
	c-0.09,0.19-0.92,0.21-1.28,0.04c-4.95-2.4-10.4-2.4-15.66-3.28c-5.13-0.86-10.3-1.32-15.52-1.05c-1.43,0.07-2.88,0.15-4.28,0.46
	c-2.55,0.56-3.16,2.22-1.8,4.43c0.39,0.64,0.71,1.32,1.29,2.43c-1.16,0.05-1.83,0.16-2.48,0.08c-4.67-0.52-9.08,0.23-13.16,2.62
	c-1.59,0.93-3.13,1.93-4.7,2.88c-2.88,1.73-4.65,4.33-5.83,7.39c-0.59,1.52-0.36,2,1.16,2.46c0.51,0.15,1.02,0.32,1.95,0.61
	c-0.66,0.79-1.02,1.5-1.59,1.89c-5.77,3.9-10.23,9.14-14.74,14.32c-2.51,2.9-4.93,5.89-6.62,9.38c-0.17,0.36-0.4,0.69-0.59,1.04
	c-0.45,0.83-0.7,1.7,0.17,2.38c0.84,0.66,1.5,0.02,2.07-0.54c4.58-4.41,10.31-6.93,15.92-9.64c1.48-0.71,3.01-1.32,5.08-2.23
	c-0.3,1.16-0.38,1.75-0.61,2.26c-0.25,0.59-0.67,1.09-0.95,1.66c-0.38,0.78-0.5,1.71,0.33,2.13c0.49,0.25,1.5,0.12,1.92-0.25
	c2.86-2.47,6.26-3.35,9.87-3.97c2.58-0.44,5.05-1.53,7.62-2.08c1.85-0.39,3.79-0.47,5.7-0.47c1.34-0.01,1.61,0.64,1.02,1.91
	c-0.13,0.29-0.41,0.54-0.46,0.83c-0.09,0.52-0.25,1.21,0,1.54c0.24,0.33,1,0.51,1.47,0.42c6.49-1.3,13.05-2.29,19.43-4.16
	c2.74-0.8,5.65-1.07,8.49-1.52c0.49-0.08,1.03,0.13,1.97,0.27c-0.62,0.9-1.06,1.51-1.46,2.14c-0.8,1.27-0.34,2.25,1.14,2.24
	c0.94,0,1.91-0.22,2.82-0.49c5.64-1.73,11.44-2.19,17.29-2.28h0.96c1,0.01,1.93,0.06,2.14,1.37c0.27,1.68-0.1,2.6-1.42,3.14
	c-2.07,0.84-4.16,1.61-6.18,2.52c-0.71,0.32-1.33,0.9-1.89,1.46c-1.23,1.24-1.05,2.04,0.52,2.65c0.14,0.06,0.34,0.03,0.46,0.11
	c0.43,0.29,1.23,0.69,1.18,0.92c-0.09,0.53-0.51,1.11-0.95,1.45c-4.97,3.86-9.39,8.2-12.43,13.78c-0.53,0.98-1,2.01-1.36,3.07
	c-0.23,0.66-0.33,1.41-0.27,2.11c0.1,1.36,1.08,1.78,2.17,0.93c0.81-0.64,1.44-1.52,2.27-2.13c0.42-0.3,1.12-0.23,1.7-0.32
	c-0.07,0.58,0.08,1.31-0.22,1.71c-3.94,5.18-5.88,11.32-8.35,17.2c-1.02,2.44-0.66,5.05-0.55,7.59c0.06,1.25,0.65,1.55,1.99,1.42
	c0.46-0.04,0.91-0.14,1.62-0.25c0,0.99,0.05,1.81-0.01,2.63c-0.42,5.66-0.79,11.32,0.32,16.95c0.15,0.78,0.39,1.57,0.77,2.25
	c0.63,1.12,1.49,1.14,2.27,0.13c0.29-0.37,0.48-0.82,0.67-1.26c1.63-3.73,3.26-7.47,4.87-11.21c0.69-1.61,1.3-3.26,2.06-4.85
	c0.24-0.51,0.75-1.05,1.26-1.22c0.27-0.1,0.9,0.49,1.19,0.9c0.66,0.91,1.19,2.07,2.57,1.68c1.27-0.36,1.46-1.56,1.68-2.68
	c0.55-2.74,1.12-5.48,1.7-8.22c0.2-0.94,0.36-1.9,0.71-2.78c0.21-0.52,0.69-1.05,1.19-1.27c0.21-0.09,0.8,0.59,1.15,0.98
	c0.26,0.28,0.37,0.71,0.63,1.01c0.67,0.76,1.35,0.73,1.97-0.13c0.32-0.44,0.54-0.98,0.75-1.49c1.61-4,3.2-8.02,4.84-12.01
	c0.45-1.11,0.98-2.19,1.61-3.21c0.38-0.62,1-1.09,1.63-1.75c0.44,0.57,0.71,0.84,0.89,1.17c1.06,1.88,1.8,1.9,3.05,0.15
	c2.22-3.12,4.29-6.38,6.78-9.28c4.07-4.72,8.53-9.07,13.79-12.51c0.41-0.26,0.97-0.28,1.53-0.44c0.57,1.44-0.21,2.36-0.72,3.29
	c-1.84,3.37-3.69,6.73-5.63,10.03c-2.9,4.95-4.42,10.44-6.24,15.81c-1.48,4.39-2.89,8.8-4.4,13.18c-0.44,1.28-1.03,2.53-1.7,3.7
	c-3.82,6.72-6.28,13.98-8.61,21.3c-1.62,5.1-3.33,10.18-5.01,15.26c-0.23,0.68-0.5,1.36-0.86,1.98c-2.32,3.99-3.41,8.43-4.71,12.79
	c-1.89,6.35-3.77,12.7-5.63,19.06c-0.83,2.84-1.56,5.7-2.38,8.54c-0.85,2.91-1.7,5.83-2.65,8.71c-1.67,5.03-2.42,10.25-3.37,15.44
	c-1.25,6.83-2.47,13.67-3.7,20.51c-0.65,3.62-1.25,7.24-1.97,10.85c-0.99,5.01-2.11,10-3.11,15.02c-1.26,6.26-2.54,12.53-3.64,18.82
	c-1.47,8.42-2.89,16.86-4.13,25.31c-1.02,6.96-1.85,13.95-2.58,20.94c-0.54,5.16-0.78,10.35-1.18,15.52
	c-0.04,0.6-0.25,1.18-0.49,2.23c-0.66-0.68-1.13-0.97-1.3-1.39c-0.27-0.66-0.34-1.39-0.48-2.1c-2.21-11.18-5.49-21.99-10.39-32.33
	c-2.21-4.68-3.9-9.62-5.57-14.53c-2.22-6.54-5.06-12.78-8.37-18.82c-1.19-2.17-2.36-4.37-3.34-6.63
	c-3.3-7.56-6.98-14.91-11.58-21.78c-1.33-1.98-2.51-4.1-3.51-6.27c-1.76-3.8-4.11-7.21-6.46-10.64c-3.33-4.88-6.44-9.92-9.78-14.8
	c-1.57-2.31-3.26-4.59-5.23-6.54c-2.62-2.58-4.68-5.46-6.18-8.76c-1.94-4.27-4.79-7.91-7.68-11.54c-0.45-0.57-0.75-1.26-1.12-1.9
	c0.12-0.16,0.23-0.32,0.34-0.49c0.65,0.09,1.39,0.01,1.94,0.3c2.74,1.46,5.44,3,8.13,4.55c1.18,0.68,2.24,1.58,3.46,2.14
	c0.81,0.37,1.85,0.55,2.73,0.43c1.15-0.17,1.85,0.17,2.37,1.12c1.18,2.09,2.35,4.19,3.54,6.28c0.55,0.97,1.03,2,1.71,2.87
	c0.96,1.21,1.69,1.1,2.62-0.18c1.14-1.57,1.74-1.52,2.55,0.3c0.75,1.68,1.36,3.42,2.17,5.07c1.06,2.13,1.3,2.2,3.37,1.08
	c1.22-0.67,1.81,0.04,2.3,0.91c1.15,2.06,2.66,3.79,4.58,5.14c0.53,0.37,1.06,0.76,1.64,0.99c1.74,0.69,3-0.04,2.84-1.9
	c-0.2-2.45-0.75-4.88-1.18-7.31c-0.13-0.68-0.35-1.35-0.56-2.16c2.93-0.81,3.21-1.21,2.83-3.95c-0.62-4.48-3.05-7.81-6.68-10.37
	c-0.93-0.66-2.13-1.08-2.62-2.56c0.61-0.05,1.04-0.08,1.47-0.11c1.49-0.08,1.97-0.82,1.38-2.19c-0.15-0.36-0.37-0.72-0.63-1.01
	c-3.56-4.08-7.41-7.74-12.74-9.43c-1.65-0.52-1.76-1.13-0.51-2.24c0.34-0.31,0.71-0.6,1.08-0.91c-0.26-1.79-1.66-2.24-2.94-2.43
	c-3.02-0.43-4.9-2.94-7.62-3.89c-0.27-0.09-0.38-0.62-0.77-1.31c1.04-0.18,1.84-0.42,2.64-0.45c5.16-0.23,10.18,0.84,15.23,1.7
	c0.63,0.1,1.28,0.35,1.88,0.27c0.56-0.08,1.24-0.4,1.52-0.84c0.18-0.27-0.16-1.07-0.49-1.43c-0.64-0.7-1.46-1.23-2.16-1.88
	c-0.22-0.19-0.31-0.52-0.65-1.13c0.86-0.16,1.5-0.42,2.14-0.39c5.26,0.18,10.56-0.46,15.78,0.77c0.92,0.22,1.91,0.21,2.86,0.18
	c1.7-0.04,2.11-0.57,1.89-2.23c-0.24-1.89-0.08-2.3,1.74-2.08c3.39,0.4,6.76,1.09,10.13,1.7c1.26,0.23,2.48,0.68,3.74,0.86
	c0.55,0.08,1.38-0.08,1.67-0.45c0.27-0.34,0.03-1.12-0.07-1.69c-0.08-0.51-0.29-1-0.59-1.98c1.19,0.24,2.02,0.3,2.77,0.57
	c3.53,1.28,7.03,2.64,10.55,3.94c0.75,0.27,1.54,0.53,2.32,0.57c0.56,0.03,1.39-0.15,1.64-0.54c0.27-0.4,0.07-1.18-0.09-1.75
	c-0.13-0.44-0.47-0.83-0.77-1.2c-2.45-3-5.29-5.58-8.6-7.55c-2.33-1.39-4.82-2.51-7.26-3.72c-1.71-0.86-1.83-0.94-1.02-2.65
	c0.59-1.25,0.03-1.99-0.82-2.68c-2.04-1.64-4.42-2.64-6.98-2.99c-2.59-0.35-5.24-0.39-7.86-0.54c-0.8-0.05-1.6,0.03-2.4,0
	c-1.89-0.09-1.98-0.2-1.89-2.12c0.07-1.64-0.36-2.21-2.03-2.21c-1.34,0-2.71,0.2-4.03,0.46c-3.06,0.59-6.11,1.25-9.14,1.95
	c-2.87,0.65-5.17,2.46-7.61,3.95c-0.64,0.39-1.26,0.81-2.36,1.53c-0.02-1.25-0.06-1.91-0.05-2.57c0.03-2.14-0.79-2.75-2.59-1.73
	c-4.8,2.72-9.68,5.31-13.87,8.97c-0.78,0.68-1.48,1.45-2.18,2.21c-0.72,0.8-1.36,0.86-2.25,0.15c-1.52-1.22-1.89-1.19-3.24,0.06
	c-1,0.92-1.9,1.95-2.85,2.92c-0.54,0.54-1.11,1.05-1.73,1.64c-0.88-0.98-0.36-1.74-0.13-2.43c0.31-0.96,0.43-1.83-0.22-2.72
	c-0.76-1.02-0.39-1.96,0.37-2.81c1.86-2.09,3.69-4.21,5.59-6.25c1.43-1.54,1.52-1.52,0.64-3.44c-0.54-1.17-0.03-1.9,0.91-2.35
	c1.5-0.72,3.07-1.33,4.63-1.93c1.2-0.46,2.45-0.76,3.62-1.26c0.68-0.28,1.33-0.91,0.91-1.69c-0.23-0.42-0.99-0.69-1.55-0.77
	c-0.66-0.1-1.36,0.08-2.07,0.15c-0.53-1.56,0.47-2.11,1.31-2.63c3.13-1.92,6.31-3.77,9.45-5.68c0.91-0.55,2.36-0.9,2.05-2.3
	c-0.32-1.41-1.75-1.09-2.84-1.16c-4.56-0.29-8.86,0.91-13.16,2.21c-0.73,0.23-1.66,0.51-2.28,0.25c-1.26-0.54-2.29-0.25-3.43,0.24
	c-3.48,1.51-6.77,3.27-8.99,6.53c-0.64,0.94-1.64,1.22-2.74,1.17c-1.22-0.06-2.22,0.33-2.86,1.39c-1.72,2.88-3.46,5.75-5.1,8.68
	c-0.5,0.89-0.65,1.97-1.03,2.93c-0.37,0.94-1.04,1.15-1.9,0.58c-0.07-0.05-0.14-0.09-0.19-0.15c-0.71-0.66-1.41-1.42-2.51-0.89
	c-1.2,0.58-1.8,1.67-1.78,2.92c0.03,2.79,0.05,5.6,0.41,8.36c0.31,2.36,1.09,4.66,1.64,6.99c0.11,0.44,0.13,0.9-0.19,1.65
	c-0.49-0.41-1.03-0.77-1.47-1.23c-1.93-2.01-3.79-4.11-5.77-6.08c-1.87-1.86-2.69-1.94-5-0.63c-0.99,0.56-1.6,0.16-2.34-0.44
	c-1.48-1.22-2.95-2.46-4.57-3.49c-1.12-0.71-2.43-1.25-3.73-1.54c-1.71-0.37-2.49,0.59-2.19,2.36c0.39,2.29,0.09,2.66-2.32,2.39
	c-3.97-0.44-7.9-0.22-11.55,1.39c-4.69,2.06-8.44,5.39-11.27,9.71c-0.64,0.97-0.83,1.95,0.04,2.84c0.9,0.93,0.5,1.7-0.08,2.55
	c-1.12,1.66-2.17,3.36-3.29,5.01c-1.51,2.21-2.11,4.63-1.94,7.28c0.13,2.2,0.5,2.43,2.67,1.6c0.29-0.11,0.61-0.14,1.11-0.26
	c0.19,0.52,0.48,1,0.52,1.49c0.06,0.88,0.12,1.8-0.09,2.63c-0.85,3.33,0.17,6.51,0.62,9.74c0.07,0.44,0.59,1.06,0.98,1.13
	c0.37,0.06,1.04-0.4,1.23-0.8c0.45-0.93,0.91-1.93,0.99-2.94c0.15-2.03,1.19-3.61,2.25-5.21c0.66-1,1.42-1.93,2.03-2.96
	c0.8-1.34,1.46-2.63,3.47-2.3c0.52,0.09,1.37-0.71,1.8-1.31c1.26-1.74,2.38-3.59,3.58-5.39c0.36-0.53,0.73-1.06,1.18-1.51
	c1.19-1.2,1.84-1.05,2.57,0.53c0.67,1.47,1.07,1.53,2.55,0.69c1.86-1.05,3.79-2.01,5.71-2.97c0.42-0.21,0.91-0.32,1.38-0.35
	c0.95-0.06,1.33,0.55,0.9,1.38c-0.15,0.28-0.4,0.5-0.59,0.75c-0.19,0.26-0.36,0.52-0.6,0.87c0.33,0.7,0.65,1.4,1.07,2.28
	c-0.49,0.29-0.9,0.63-1.37,0.79c-1.36,0.47-2.75,0.86-4.12,1.3c-1.04,0.33-1.67,0.97-1.34,2.15c0.34,1.26-0.31,1.78-1.41,1.99
	c-1.41,0.27-2.86,0.44-4.23,0.84c-2.46,0.7-4.91,1.41-7.29,2.33c-3.02,1.16-4.56,3.9-6.18,6.46c-0.22,0.36-0.05,1.1,0.16,1.56
	c0.52,1.18,0.11,1.97-0.81,2.7c-2.06,1.65-4.07,3.37-6.13,5.01c-3.43,2.75-5.25,6.6-7.2,10.36c-0.71,1.37-0.38,1.9,1,2.63
	c1.37,0.72,1.45,1.09,0.46,2.33c-0.3,0.37-0.68,0.68-0.99,1.05c-2.6,3.07-3.92,6.74-4.75,10.58c-0.42,1.91-0.27,2,1.52,2.85
	c0.93,0.45,1.04,1.1,0.85,1.96c-0.44,2.03-0.95,4.05-1.29,6.1c-0.17,1.07-0.17,2.21-0.03,3.3c0.29,2.29,0.75,4.57,1.08,6.86
	c0.13,0.84,0.26,1.67,1.19,1.88c0.95,0.23,1.5-0.5,1.84-1.23c1.38-2.96,2.71-5.96,4.06-8.94c0.22-0.51,0.33-1.09,0.63-1.54
	c0.49-0.75,1.25-0.72,1.73,0.03c0.21,0.33,0.26,0.77,0.46,1.1c0.59,0.99,1.39,1.11,2.09,0.21c0.53-0.68,0.89-1.51,1.22-2.32
	c0.96-2.28,1.86-4.59,2.8-6.88c0.25-0.59,0.54-1.17,0.91-1.69c0.78-1.1,1.29-1.11,2.26-0.13c1.54,1.55,2.06,1.42,2.95-0.66
	c2.13-5.03,4.95-9.67,8.09-14.11c0.4-0.56,0.94-1.14,1.55-1.41c0.9-0.39,1.15,0.56,1.6,1.08c0.61,0.7,1.27,0.55,1.84-0.09
	c0.21-0.23,0.35-0.52,0.51-0.8c1.99-3.37,3.95-6.75,5.97-10.1c0.38-0.64,0.96-1.15,1.58-1.87c0.44,0.55,0.71,0.81,0.91,1.13
	c0.95,1.59,1.67,1.63,2.71,0.03c1.04-1.61,1.97-3.29,2.99-4.92c0.77-1.23,0.89-1.27,2.74-1.65c-0.34,0.95-0.58,1.75-0.9,2.5
	c-0.6,1.39-1.32,2.74-1.87,4.15c-0.62,1.56-0.51,2.11,0.94,2.68c1.54,0.6,1.4,1.53,1.31,2.84c-0.22,2.95-0.26,5.91-0.21,8.86
	c0.03,1.59,0.85,1.87,2.2,0.96c1.62-1.09,2.04-0.96,2.57,0.96c0.87,3.15,1.62,6.35,2.51,9.5c0.5,1.76,1.04,3.54,1.85,5.18
	c1.06,2.14,2.45,2.25,3.76,0.28c1.54-2.32,2.94-4.75,4.22-7.24c1.12-2.19,1.97-4.53,3-6.79c0.17-0.38,0.68-0.92,0.94-0.87
	c0.45,0.09,0.94,0.5,1.2,0.92c0.38,0.59,0.47,1.38,0.87,1.95c0.27,0.4,0.91,0.83,1.3,0.76c0.36-0.07,0.83-0.76,0.86-1.21
	c0.11-1.51,0.16-3.04,0.02-4.55c-0.38-4.05-0.66-8.13-1.96-12.04c-0.1-0.3-0.23-0.63-0.19-0.93c0.05-0.36,0.18-0.85,0.44-1
	c0.26-0.15,0.85-0.09,1.07,0.12c0.58,0.53,1,1.24,1.57,1.79c0.31,0.31,0.89,0.71,1.16,0.6c0.44-0.17,0.98-0.71,1.02-1.13
	c0.09-0.93,0.05-1.93-0.21-2.83c-0.68-2.38-1.53-4.71-2.26-7.07c-0.26-0.85-0.36-1.75-0.54-2.63c1.4-0.34,1.69,0.53,2.13,1.16
	c3.95,5.64,7.2,11.69,10.3,17.82c1.8,3.57,3.3,7.3,5.28,10.76c1.6,2.79,2.96,5.66,4.07,8.66c2.2,5.92,4.32,11.86,6.61,17.74
	c0.96,2.45,2.16,4.82,3.41,7.14c2.21,4.13,3.46,8.6,4.7,13.06c2.62,9.4,5.1,18.83,7.71,28.22c0.79,2.85,1.97,5.58,2.74,8.43
	c1.1,4.08,2.04,8.21,2.96,12.34c2.11,9.52,4.11,19.06,6.25,28.57c1.16,5.15,2.54,10.24,3.75,15.37c0.32,1.39,0.4,2.85,0.51,4.28
	c0.93,8.22,1.67,14.72,2.23,19.62c0.28-0.01,0.55-0.02,0.82-0.03c3.11-0.08,6.28,0.3,9.32-0.16c5.03-0.76,9.73-2.64,13.57-6.11
	c1.31-1.18,2.61-1.55,4.3-1.58c8.82-0.16,17.31-1.85,25.22-5.87c2.73-1.4,4.97-3.46,6.49-6.21c0.65-1.16,0.88-2.33,0.81-3.67
	c-0.22-4.54-0.52-9.1-0.43-13.64c0.13-7.19,0.55-14.36,0.85-21.55c0.01-0.32,0.03-0.63,0.04-0.95c0.07-5.35,0.07-10.71,0.22-16.05
	c0.12-4.23,0.46-8.45,0.62-12.68c0.14-3.52,0.07-7.04,0.24-10.55c0.22-4.47,0.62-8.92,0.88-13.39c0.39-6.45,0.64-12.92,1.09-19.37
	c0.45-6.53,1.15-13.04,1.63-19.57c0.64-8.8,2.38-17.4,4.26-26c0.62-2.88,0.84-5.85,1.3-8.77c0.27-1.73,0.69-3.44,0.98-5.17
	c2.1-12.37,4.04-24.77,6.34-37.11c1.04-5.56,2.8-10.98,4.21-16.47c1.48-5.73,2.85-11.49,4.43-17.19c2.7-9.77,4.94-19.68,9.26-28.95
	c2.8-6.01,5.17-12.22,7.75-18.32c0.48-1.14,0.86-2.43,2.74-2.63c0,0.74,0.04,1.33,0,1.91c-0.4,5.89-0.88,11.77-1.2,17.67
	c-0.14,2.45,0.06,2.46,2.4,3.34c0.5,0.19,0.94,0.77,1.18,1.28c0.22,0.48,0.13,1.1,0.18,1.66c0.38,3.57,0.69,7.15,1.15,10.71
	c0.34,2.7,0.87,5.37,1.33,8.04c0.1,0.55,0.21,1.12,0.44,1.61c0.64,1.36,1.78,1.53,2.89,0.5c0.12-0.11,0.22-0.23,0.33-0.35
	c1.93-2.17,2.05-2.18,3.41,0.25c2.57,4.6,6.41,8.13,10.06,11.8c1.35,1.36,2.83,2.59,4.28,3.84c0.54,0.46,1.11,0.95,1.76,1.2
	c1.03,0.41,1.87-0.11,2.27-1.49c0.51-1.76,0.9-3.56,1.28-5.36c1.45-6.98,2.33-14.02,2.6-21.15c0.01-0.24-0.01-0.48,0.02-0.72
	c0.19-1.39,0.67-1.68,1.9-1.14c0.22,0.09,0.42,0.24,0.62,0.37c0.71,0.46,1.58,0.85,2.19,0.17c0.46-0.51,0.77-1.45,0.67-2.13
	c-0.51-3.32-1.37-6.57-2.96-9.57c-1.2-2.26-2.42-4.5-3.6-6.77c-0.13-0.25-0.09-0.59-0.16-1.2c0.84,0.09,1.51,0.19,2.19,0.22
	c1.52,0.07,2.24-0.77,1.83-2.25c-0.27-0.98-0.71-1.91-1.12-2.98c1.22-0.41,1.82,0.32,2.4,0.88c0.91,0.9,1.73,1.89,2.62,2.81
	c0.44,0.45,0.91,0.92,1.44,1.25c1.13,0.68,2.14,0.25,2.26-1.06c0.12-1.42-0.02-2.86-0.08-4.29c-0.01-0.47-0.24-0.95-0.21-1.41
	c0.05-0.81,0.59-1.1,1.34-0.88c0.3,0.09,0.59,0.27,0.83,0.47c5.05,4.09,9.81,8.45,13.27,14.05c0.62,1,1.36,2.01,2.27,2.74
	c1.84,1.48,3.65,0.67,3.92-1.67c0.1-0.87-0.05-1.77,0.06-2.63c0.07-0.49,0.34-1.21,0.7-1.34c0.38-0.15,1.11,0.12,1.47,0.45
	c1.24,1.12,2.5,2.26,3.55,3.56c3.26,4.04,6.4,8.18,9.66,12.22c1.55,1.93,3.23,3.74,4.9,5.57c0.66,0.72,1.48,1.33,2.54,0.88
	c1.11-0.46,1.39-1.45,1.39-2.57c-0.01-0.85,0-1.7,0-2.42c1.03-0.62,1.56-0.11,2.08,0.41c3.51,3.63,6.69,7.52,9.42,11.77
	c0.77,1.19,1.73,2.32,2.8,3.23c1.39,1.18,2.53,0.65,2.9-1.15c0.1-0.46,0.04-0.96,0.13-1.43c0.08-0.44,0.27-0.86,0.39-1.23
	c1.28-0.27,1.68,0.61,2.18,1.3c3.17,4.31,6.32,8.64,9.51,12.93c0.71,0.96,1.47,1.94,2.39,2.66c1.77,1.38,3.62,0.58,3.72-1.63
	C778.05,231.39,778.13,228.54,777.24,225.7z M777.24,225.7c-1.76-5.57-3.57-11.11-6.45-16.23c-0.51-0.9-1.16-1.72-1.68-2.61
	c-0.7-1.19-0.33-1.85,1.01-1.81c0.31,0,0.63,0.15,0.94,0.15c1.22-0.02,1.8-0.74,1.4-1.87c-0.26-0.74-0.7-1.44-1.14-2.1
	c-3.3-4.84-6.97-9.36-11.83-12.76c-1.23-0.86-2.62-1.51-3.88-2.34c-0.41-0.27-0.9-0.85-0.86-1.24c0.03-0.39,0.65-0.77,1.08-1.06
	c0.24-0.16,0.63-0.11,0.92-0.21c1.53-0.56,1.83-1.37,1-2.74c-0.29-0.48-0.61-0.95-1-1.35c-3.26-3.32-6.68-6.41-10.87-8.58
	c-2.83-1.47-5.53-3.2-8.36-4.69c-1.47-0.77-3.1-1.25-4.66-1.86c-0.51-0.21-1.08-0.34-1.54-0.64c-0.28-0.19-0.6-0.71-0.52-0.96
	c0.12-0.38,0.53-0.87,0.89-0.93c0.93-0.18,1.94-0.02,2.85-0.25c0.7-0.17,1.68-0.63,1.84-1.17c0.14-0.5-0.52-1.42-1.05-1.88
	c-0.65-0.55-1.5-0.91-2.33-1.2c-5.36-1.84-10.64-3.93-16.25-4.99c-3.25-0.61-6.5-0.78-9.78-0.44c-1.47,0.15-2.99,0.5-4.65-0.45
	c0.35-0.61,0.62-1.13,0.94-1.63c1.19-1.89,0.76-3.24-1.44-3.72c-1.45-0.32-3.01-0.34-4.51-0.26c-3.75,0.22-7.51,0.44-11.22,0.94
	c-2.76,0.37-5.45,1.18-8.18,1.79c-0.81,0.18-1.62,0.35-2.43,0.53c-0.1-0.14-0.2-0.29-0.29-0.43c0.24-0.42,0.38-1,0.74-1.23
	c4.51-2.95,9.22-5.16,14.84-4.18c0.78,0.14,1.6,0.08,2.4,0.08c0.9,0,1.85-0.02,2.19-1.06c0.34-1.04-0.43-1.69-1.12-2.19
	c-1.17-0.82-2.43-1.52-3.67-2.24c-0.8-0.46-2.15-0.57-1.96-1.76c0.22-1.43,1.63-0.89,2.59-1c5.38-0.59,10.27,0.96,14.94,3.46
	c0.7,0.37,1.45,0.73,2.22,0.86c1.38,0.23,2.07-0.61,1.8-2.01c-0.14-0.72-0.29-1.44-0.43-2.17c0.16-0.11,0.32-0.23,0.48-0.35
	c0.67,0.35,1.41,0.6,1.98,1.06c2.34,1.93,4.62,3.94,6.93,5.9c1.16,0.97,2.27,2.03,3.54,2.84c1.77,1.13,2.65,0.88,4.01-0.79
	c0.85-1.03,1.37-1.05,2.46,0.26c2.69,3.27,5.36,6.56,7.92,9.93c1.21,1.58,2.14,3.37,3.2,5.06c0.5,0.8,0.88,1.92,2.07,1.64
	c1.18-0.28,1.51-1.4,1.53-2.47c0.04-2.71,0.21-5.45-0.08-8.13c-0.39-3.49-1.19-6.93-1.77-10.39c-0.13-0.73-0.12-1.49-0.19-2.57
	c0.98,0.25,1.56,0.42,2.15,0.54c1.54,0.34,2.7-0.83,1.95-2.18c-1.88-3.41-2.9-7.28-5.77-10.17c-3.17-3.2-6.49-6.16-10.66-8.02
	c-0.15-0.06-0.32-0.11-0.42-0.22c-0.35-0.39-0.66-0.81-0.99-1.21c0.51-0.29,0.99-0.74,1.52-0.82c0.78-0.12,1.61,0.14,2.38,0
	c0.44-0.09,0.97-0.58,1.14-1.02c0.11-0.29-0.26-0.91-0.58-1.18c-0.54-0.46-1.19-0.81-1.84-1.11c-6.97-3.25-14.22-5.27-22.01-5.03
	c-2.7,0.08-5.42-0.23-8.13-0.29c-1.27-0.02-2.55,0.1-3.82,0.2c-1.64,0.11-1.96-0.07-2.48-1.56c-0.67-1.92-1.2-2.3-3.17-1.78
	c-1.38,0.37-2.78,0.82-4.01,1.52c-2.97,1.71-5.86,3.57-8.75,5.41c-0.75,0.48-1.48,0.74-2.21,0.17c-1.25-0.98-2.17-0.35-3.19,0.44
	c-4.75,3.65-8.1,8.33-10.23,13.92c-0.53,1.39-0.52,1.39-1.83,1.95c-0.15-0.44-0.37-0.85-0.42-1.29c-0.49-4.52-0.82-9.07-1.45-13.57
	c-0.82-5.91-3.6-11.07-6.85-15.95c-1.01-1.51-2.35-2.87-4.63-2.12c-0.45,0.15-1.29-0.43-1.75-0.88c-0.86-0.83-1.52-1.85-2.34-2.73
	c-3.16-3.42-7.16-5.56-11.35-7.43c-1.05-0.47-1.74-0.35-2.34,0.77c-0.81,1.5-1.23,1.62-2.57,0.67c-3.64-2.57-7.83-3.98-11.8-5.84
	c-1.51-0.71-3-1.48-4.46-2.3c-1.18-0.68-2.3-0.96-3.48-0.24c-0.19,2.04,2.53,2.46,2.08,4.78c-0.94-0.13-1.84-0.2-2.72-0.39
	c-4.21-0.94-8.37-2.1-12.75-2.01c-3.07,0.07-6.02,0.72-8.93,1.64c-0.46,0.15-0.9,0.35-1.32,0.57c-0.81,0.42-1.52,0.97-1.48,1.99
	c0.04,1.04,0.8,1.57,1.68,1.81c2.54,0.69,5.07,1.47,7.66,1.91c3.96,0.68,7.82,1.67,11.59,3.01c1.91,0.69,2.06,1.46,0.6,2.85
	c-0.29,0.27-0.62,0.51-0.87,0.82c-1.39,1.74-0.75,3.45,1.46,3.86c1.8,0.33,3.68,0.42,5.42,0.94c2.36,0.7,4.66,1.65,6.93,2.6
	c0.96,0.41,1.21,1.23,0.47,2.15c-0.25,0.31-0.52,0.62-0.71,0.97c-0.63,1.16-0.52,1.98,0.6,2.67c1.08,0.66,2.28,1.18,3.48,1.59
	c2.16,0.75,4,1.93,5.6,3.57c1.01,1.02,2.15,1.91,3.17,2.91c0.52,0.51,0.9,1.16,1.42,1.84c-0.55,0.34-0.8,0.54-1.08,0.65
	c-2.19,0.88-2.39,1.59-0.79,3.15c1.43,1.4,2.95,2.7,4.4,4.07c0.7,0.65,1.39,1.32,2,2.06c0.26,0.31,0.3,0.81,0.43,1.21
	c-1.03,0.57-1.52-0.13-1.96-0.62c-3.35-3.77-7.73-5.84-12.34-7.57c-1.3-0.48-2.41-0.74-3.36,0.65c-0.72,1.06-1.67,0.6-2.56,0.17
	c-2.74-1.33-5.43-2.76-8.22-3.94c-3.67-1.56-7.43-2.92-11.15-4.36c-1.49-0.58-2.96-1.24-4.49-1.66c-1.44-0.41-2.96-0.8-4.43-0.76
	c-2.31,0.05-3.08,1.54-2.04,3.6c0.43,0.86,1.09,1.59,1.49,2.46c0.19,0.42,0.15,1.07-0.05,1.49c-0.09,0.19-0.92,0.21-1.28,0.04
	c-4.95-2.4-10.4-2.4-15.66-3.28c-5.13-0.86-10.3-1.32-15.52-1.05c-1.43,0.07-2.88,0.15-4.28,0.46c-2.55,0.56-3.16,2.22-1.8,4.43
	c0.39,0.64,0.71,1.32,1.29,2.43c-1.16,0.05-1.83,0.16-2.48,0.08c-4.67-0.52-9.08,0.23-13.16,2.62c-1.59,0.93-3.13,1.93-4.7,2.88
	c-2.88,1.73-4.65,4.33-5.83,7.39c-0.59,1.52-0.36,2,1.16,2.46c0.51,0.15,1.02,0.32,1.95,0.61c-0.66,0.79-1.02,1.5-1.59,1.89
	c-5.77,3.9-10.23,9.14-14.74,14.32c-2.51,2.9-4.93,5.89-6.62,9.38c-0.17,0.36-0.4,0.69-0.59,1.04c-0.45,0.83-0.7,1.7,0.17,2.38
	c0.84,0.66,1.5,0.02,2.07-0.54c4.58-4.41,10.31-6.93,15.92-9.64c1.48-0.71,3.01-1.32,5.08-2.23c-0.3,1.16-0.38,1.75-0.61,2.26
	c-0.25,0.59-0.67,1.09-0.95,1.66c-0.38,0.78-0.5,1.71,0.33,2.13c0.49,0.25,1.5,0.12,1.92-0.25c2.86-2.47,6.26-3.35,9.87-3.97
	c2.58-0.44,5.05-1.53,7.62-2.08c1.85-0.39,3.79-0.47,5.7-0.47c1.34-0.01,1.61,0.64,1.02,1.91c-0.13,0.29-0.41,0.54-0.46,0.83
	c-0.09,0.52-0.25,1.21,0,1.54c0.24,0.33,1,0.51,1.47,0.42c6.49-1.3,13.05-2.29,19.43-4.16c2.74-0.8,5.65-1.07,8.49-1.52
	c0.49-0.08,1.03,0.13,1.97,0.27c-0.62,0.9-1.06,1.51-1.46,2.14c-0.8,1.27-0.34,2.25,1.14,2.24c0.94,0,1.91-0.22,2.82-0.49
	c5.64-1.73,11.44-2.19,17.29-2.28h0.96c1,0.01,1.93,0.06,2.14,1.37c0.27,1.68-0.1,2.6-1.42,3.14c-2.07,0.84-4.16,1.61-6.18,2.52
	c-0.71,0.32-1.33,0.9-1.89,1.46c-1.23,1.24-1.05,2.04,0.52,2.65c0.14,0.06,0.34,0.03,0.46,0.11c0.43,0.29,1.23,0.69,1.18,0.92
	c-0.09,0.53-0.51,1.11-0.95,1.45c-4.97,3.86-9.39,8.2-12.43,13.78c-0.53,0.98-1,2.01-1.36,3.07c-0.23,0.66-0.33,1.41-0.27,2.11
	c0.1,1.36,1.08,1.78,2.17,0.93c0.81-0.64,1.44-1.52,2.27-2.13c0.42-0.3,1.12-0.23,1.7-0.32c-0.07,0.58,0.08,1.31-0.22,1.71
	c-3.94,5.18-5.88,11.32-8.35,17.2c-1.02,2.44-0.66,5.05-0.55,7.59c0.06,1.25,0.65,1.55,1.99,1.42c0.46-0.04,0.91-0.14,1.62-0.25
	c0,0.99,0.05,1.81-0.01,2.63c-0.42,5.66-0.79,11.32,0.32,16.95c0.15,0.78,0.39,1.57,0.77,2.25c0.63,1.12,1.49,1.14,2.27,0.13
	c0.29-0.37,0.48-0.82,0.67-1.26c1.63-3.73,3.26-7.47,4.87-11.21c0.69-1.61,1.3-3.26,2.06-4.85c0.24-0.51,0.75-1.05,1.26-1.22
	c0.27-0.1,0.9,0.49,1.19,0.9c0.66,0.91,1.19,2.07,2.57,1.68c1.27-0.36,1.46-1.56,1.68-2.68c0.55-2.74,1.12-5.48,1.7-8.22
	c0.2-0.94,0.36-1.9,0.71-2.78c0.21-0.52,0.69-1.05,1.19-1.27c0.21-0.09,0.8,0.59,1.15,0.98c0.26,0.28,0.37,0.71,0.63,1.01
	c0.67,0.76,1.35,0.73,1.97-0.13c0.32-0.44,0.54-0.98,0.75-1.49c1.61-4,3.2-8.02,4.84-12.01c0.45-1.11,0.98-2.19,1.61-3.21
	c0.38-0.62,1-1.09,1.63-1.75c0.44,0.57,0.71,0.84,0.89,1.17c1.06,1.88,1.8,1.9,3.05,0.15c2.22-3.12,4.29-6.38,6.78-9.28
	c4.07-4.72,8.53-9.07,13.79-12.51c0.41-0.26,0.97-0.28,1.53-0.44c0.57,1.44-0.21,2.36-0.72,3.29c-1.84,3.37-3.69,6.73-5.63,10.03
	c-2.9,4.95-4.42,10.44-6.24,15.81c-1.48,4.39-2.89,8.8-4.4,13.18c-0.44,1.28-1.03,2.53-1.7,3.7c-3.82,6.72-6.28,13.98-8.61,21.3
	c-1.62,5.1-3.33,10.18-5.01,15.26c-0.23,0.68-0.5,1.36-0.86,1.98c-2.32,3.99-3.41,8.43-4.71,12.79c-1.89,6.35-3.77,12.7-5.63,19.06
	c-0.83,2.84-1.56,5.7-2.38,8.54c-0.85,2.91-1.7,5.83-2.65,8.71c-1.67,5.03-2.42,10.25-3.37,15.44c-1.25,6.83-2.47,13.67-3.7,20.51
	c-0.65,3.62-1.25,7.24-1.97,10.85c-0.99,5.01-2.11,10-3.11,15.02c-1.26,6.26-2.54,12.53-3.64,18.82
	c-1.47,8.42-2.89,16.86-4.13,25.31c-1.02,6.96-1.85,13.95-2.58,20.94c-0.54,5.16-0.78,10.35-1.18,15.52
	c-0.04,0.6-0.25,1.18-0.49,2.23c-0.66-0.68-1.13-0.97-1.3-1.39c-0.27-0.66-0.34-1.39-0.48-2.1c-2.21-11.18-5.49-21.99-10.39-32.33
	c-2.21-4.68-3.9-9.62-5.57-14.53c-2.22-6.54-5.06-12.78-8.37-18.82c-1.19-2.17-2.36-4.37-3.34-6.63
	c-3.3-7.56-6.98-14.91-11.58-21.78c-1.33-1.98-2.51-4.1-3.51-6.27c-1.76-3.8-4.11-7.21-6.46-10.64c-3.33-4.88-6.44-9.92-9.78-14.8
	c-1.57-2.31-3.26-4.59-5.23-6.54c-2.62-2.58-4.68-5.46-6.18-8.76c-1.94-4.27-4.79-7.91-7.68-11.54c-0.45-0.57-0.75-1.26-1.12-1.9
	c0.12-0.16,0.23-0.32,0.34-0.49c0.65,0.09,1.39,0.01,1.94,0.3c2.74,1.46,5.44,3,8.13,4.55c1.18,0.68,2.24,1.58,3.46,2.14
	c0.81,0.37,1.85,0.55,2.73,0.43c1.15-0.17,1.85,0.17,2.37,1.12c1.18,2.09,2.35,4.19,3.54,6.28c0.55,0.97,1.03,2,1.71,2.87
	c0.96,1.21,1.69,1.1,2.62-0.18c1.14-1.57,1.74-1.52,2.55,0.3c0.75,1.68,1.36,3.42,2.17,5.07c1.06,2.13,1.3,2.2,3.37,1.08
	c1.22-0.67,1.81,0.04,2.3,0.91c1.15,2.06,2.66,3.79,4.58,5.14c0.53,0.37,1.06,0.76,1.64,0.99c1.74,0.69,3-0.04,2.84-1.9
	c-0.2-2.45-0.75-4.88-1.18-7.31c-0.13-0.68-0.35-1.35-0.56-2.16c2.93-0.81,3.21-1.21,2.83-3.95c-0.62-4.48-3.05-7.81-6.68-10.37
	c-0.93-0.66-2.13-1.08-2.62-2.56c0.61-0.05,1.04-0.08,1.47-0.11c1.49-0.08,1.97-0.82,1.38-2.19c-0.15-0.36-0.37-0.72-0.63-1.01
	c-3.56-4.08-7.41-7.74-12.74-9.43c-1.65-0.52-1.76-1.13-0.51-2.24c0.34-0.31,0.71-0.6,1.08-0.91c-0.26-1.79-1.66-2.24-2.94-2.43
	c-3.02-0.43-4.9-2.94-7.62-3.89c-0.27-0.09-0.38-0.62-0.77-1.31c1.04-0.18,1.84-0.42,2.64-0.45c5.16-0.23,10.18,0.84,15.23,1.7
	c0.63,0.1,1.28,0.35,1.88,0.27c0.56-0.08,1.24-0.4,1.52-0.84c0.18-0.27-0.16-1.07-0.49-1.43c-0.64-0.7-1.46-1.23-2.16-1.88
	c-0.22-0.19-0.31-0.52-0.65-1.13c0.86-0.16,1.5-0.42,2.14-0.39c5.26,0.18,10.56-0.46,15.78,0.77c0.92,0.22,1.91,0.21,2.86,0.18
	c1.7-0.04,2.11-0.57,1.89-2.23c-0.24-1.89-0.08-2.3,1.74-2.08c3.39,0.4,6.76,1.09,10.13,1.7c1.26,0.23,2.48,0.68,3.74,0.86
	c0.55,0.08,1.38-0.08,1.67-0.45c0.27-0.34,0.03-1.12-0.07-1.69c-0.08-0.51-0.29-1-0.59-1.98c1.19,0.24,2.02,0.3,2.77,0.57
	c3.53,1.28,7.03,2.64,10.55,3.94c0.75,0.27,1.54,0.53,2.32,0.57c0.56,0.03,1.39-0.15,1.64-0.54c0.27-0.4,0.07-1.18-0.09-1.75
	c-0.13-0.44-0.47-0.83-0.77-1.2c-2.45-3-5.29-5.58-8.6-7.55c-2.33-1.39-4.82-2.51-7.26-3.72c-1.71-0.86-1.83-0.94-1.02-2.65
	c0.59-1.25,0.03-1.99-0.82-2.68c-2.04-1.64-4.42-2.64-6.98-2.99c-2.59-0.35-5.24-0.39-7.86-0.54c-0.8-0.05-1.6,0.03-2.4,0
	c-1.89-0.09-1.98-0.2-1.89-2.12c0.07-1.64-0.36-2.21-2.03-2.21c-1.34,0-2.71,0.2-4.03,0.46c-3.06,0.59-6.11,1.25-9.14,1.95
	c-2.87,0.65-5.17,2.46-7.61,3.95c-0.64,0.39-1.26,0.81-2.36,1.53c-0.02-1.25-0.06-1.91-0.05-2.57c0.03-2.14-0.79-2.75-2.59-1.73
	c-4.8,2.72-9.68,5.31-13.87,8.97c-0.78,0.68-1.48,1.45-2.18,2.21c-0.72,0.8-1.36,0.86-2.25,0.15c-1.52-1.22-1.89-1.19-3.24,0.06
	c-1,0.92-1.9,1.95-2.85,2.92c-0.54,0.54-1.11,1.05-1.73,1.64c-0.88-0.98-0.36-1.74-0.13-2.43c0.31-0.96,0.43-1.83-0.22-2.72
	c-0.76-1.02-0.39-1.96,0.37-2.81c1.86-2.09,3.69-4.21,5.59-6.25c1.43-1.54,1.52-1.52,0.64-3.44c-0.54-1.17-0.03-1.9,0.91-2.35
	c1.5-0.72,3.07-1.33,4.63-1.93c1.2-0.46,2.45-0.76,3.62-1.26c0.68-0.28,1.33-0.91,0.91-1.69c-0.23-0.42-0.99-0.69-1.55-0.77
	c-0.66-0.1-1.36,0.08-2.07,0.15c-0.53-1.56,0.47-2.11,1.31-2.63c3.13-1.92,6.31-3.77,9.45-5.68c0.91-0.55,2.36-0.9,2.05-2.3
	c-0.32-1.41-1.75-1.09-2.84-1.16c-4.56-0.29-8.86,0.91-13.16,2.21c-0.73,0.23-1.66,0.51-2.28,0.25c-1.26-0.54-2.29-0.25-3.43,0.24
	c-3.48,1.51-6.77,3.27-8.99,6.53c-0.64,0.94-1.64,1.22-2.74,1.17c-1.22-0.06-2.22,0.33-2.86,1.39c-1.72,2.88-3.46,5.75-5.1,8.68
	c-0.5,0.89-0.65,1.97-1.03,2.93c-0.37,0.94-1.04,1.15-1.9,0.58c-0.07-0.05-0.14-0.09-0.19-0.15c-0.71-0.66-1.41-1.42-2.51-0.89
	c-1.2,0.58-1.8,1.67-1.78,2.92c0.03,2.79,0.05,5.6,0.41,8.36c0.31,2.36,1.09,4.66,1.64,6.99c0.11,0.44,0.13,0.9-0.19,1.65
	c-0.49-0.41-1.03-0.77-1.47-1.23c-1.93-2.01-3.79-4.11-5.77-6.08c-1.87-1.86-2.69-1.94-5-0.63c-0.99,0.56-1.6,0.16-2.34-0.44
	c-1.48-1.22-2.95-2.46-4.57-3.49c-1.12-0.71-2.43-1.25-3.73-1.54c-1.71-0.37-2.49,0.59-2.19,2.36c0.39,2.29,0.09,2.66-2.32,2.39
	c-3.97-0.44-7.9-0.22-11.55,1.39c-4.69,2.06-8.44,5.39-11.27,9.71c-0.64,0.97-0.83,1.95,0.04,2.84c0.9,0.93,0.5,1.7-0.08,2.55
	c-1.12,1.66-2.17,3.36-3.29,5.01c-1.51,2.21-2.11,4.63-1.94,7.28c0.13,2.2,0.5,2.43,2.67,1.6c0.29-0.11,0.61-0.14,1.11-0.26
	c0.19,0.52,0.48,1,0.52,1.49c0.06,0.88,0.12,1.8-0.09,2.63c-0.85,3.33,0.17,6.51,0.62,9.74c0.07,0.44,0.59,1.06,0.98,1.13
	c0.37,0.06,1.04-0.4,1.23-0.8c0.45-0.93,0.91-1.93,0.99-2.94c0.15-2.03,1.19-3.61,2.25-5.21c0.66-1,1.42-1.93,2.03-2.96
	c0.8-1.34,1.46-2.63,3.47-2.3c0.52,0.09,1.37-0.71,1.8-1.31c1.26-1.74,2.38-3.59,3.58-5.39c0.36-0.53,0.73-1.06,1.18-1.51
	c1.19-1.2,1.84-1.05,2.57,0.53c0.67,1.47,1.07,1.53,2.55,0.69c1.86-1.05,3.79-2.01,5.71-2.97c0.42-0.21,0.91-0.32,1.38-0.35
	c0.95-0.06,1.33,0.55,0.9,1.38c-0.15,0.28-0.4,0.5-0.59,0.75c-0.19,0.26-0.36,0.52-0.6,0.87c0.33,0.7,0.65,1.4,1.07,2.28
	c-0.49,0.29-0.9,0.63-1.37,0.79c-1.36,0.47-2.75,0.86-4.12,1.3c-1.04,0.33-1.67,0.97-1.34,2.15c0.34,1.26-0.31,1.78-1.41,1.99
	c-1.41,0.27-2.86,0.44-4.23,0.84c-2.46,0.7-4.91,1.41-7.29,2.33c-3.02,1.16-4.56,3.9-6.18,6.46c-0.22,0.36-0.05,1.1,0.16,1.56
	c0.52,1.18,0.11,1.97-0.81,2.7c-2.06,1.65-4.07,3.37-6.13,5.01c-3.43,2.75-5.25,6.6-7.2,10.36c-0.71,1.37-0.38,1.9,1,2.63
	c1.37,0.72,1.45,1.09,0.46,2.33c-0.3,0.37-0.68,0.68-0.99,1.05c-2.6,3.07-3.92,6.74-4.75,10.58c-0.42,1.91-0.27,2,1.52,2.85
	c0.93,0.45,1.04,1.1,0.85,1.96c-0.44,2.03-0.95,4.05-1.29,6.1c-0.17,1.07-0.17,2.21-0.03,3.3c0.29,2.29,0.75,4.57,1.08,6.86
	c0.13,0.84,0.26,1.67,1.19,1.88c0.95,0.23,1.5-0.5,1.84-1.23c1.38-2.96,2.71-5.96,4.06-8.94c0.22-0.51,0.33-1.09,0.63-1.54
	c0.49-0.75,1.25-0.72,1.73,0.03c0.21,0.33,0.26,0.77,0.46,1.1c0.59,0.99,1.39,1.11,2.09,0.21c0.53-0.68,0.89-1.51,1.22-2.32
	c0.96-2.28,1.86-4.59,2.8-6.88c0.25-0.59,0.54-1.17,0.91-1.69c0.78-1.1,1.29-1.11,2.26-0.13c1.54,1.55,2.06,1.42,2.95-0.66
	c2.13-5.03,4.95-9.67,8.09-14.11c0.4-0.56,0.94-1.14,1.55-1.41c0.9-0.39,1.15,0.56,1.6,1.08c0.61,0.7,1.27,0.55,1.84-0.09
	c0.21-0.23,0.35-0.52,0.51-0.8c1.99-3.37,3.95-6.75,5.97-10.1c0.38-0.64,0.96-1.15,1.58-1.87c0.44,0.55,0.71,0.81,0.91,1.13
	c0.95,1.59,1.67,1.63,2.71,0.03c1.04-1.61,1.97-3.29,2.99-4.92c0.77-1.23,0.89-1.27,2.74-1.65c-0.34,0.95-0.58,1.75-0.9,2.5
	c-0.6,1.39-1.32,2.74-1.87,4.15c-0.62,1.56-0.51,2.11,0.94,2.68c1.54,0.6,1.4,1.53,1.31,2.84c-0.22,2.95-0.26,5.91-0.21,8.86
	c0.03,1.59,0.85,1.87,2.2,0.96c1.62-1.09,2.04-0.96,2.57,0.96c0.87,3.15,1.62,6.35,2.51,9.5c0.5,1.76,1.04,3.54,1.85,5.18
	c1.06,2.14,2.45,2.25,3.76,0.28c1.54-2.32,2.94-4.75,4.22-7.24c1.12-2.19,1.97-4.53,3-6.79c0.17-0.38,0.68-0.92,0.94-0.87
	c0.45,0.09,0.94,0.5,1.2,0.92c0.38,0.59,0.47,1.38,0.87,1.95c0.27,0.4,0.91,0.83,1.3,0.76c0.36-0.07,0.83-0.76,0.86-1.21
	c0.11-1.51,0.16-3.04,0.02-4.55c-0.38-4.05-0.66-8.13-1.96-12.04c-0.1-0.3-0.23-0.63-0.19-0.93c0.05-0.36,0.18-0.85,0.44-1
	c0.26-0.15,0.85-0.09,1.07,0.12c0.58,0.53,1,1.24,1.57,1.79c0.31,0.31,0.89,0.71,1.16,0.6c0.44-0.17,0.98-0.71,1.02-1.13
	c0.09-0.93,0.05-1.93-0.21-2.83c-0.68-2.38-1.53-4.71-2.26-7.07c-0.26-0.85-0.36-1.75-0.54-2.63c1.4-0.34,1.69,0.53,2.13,1.16
	c3.95,5.64,7.2,11.69,10.3,17.82c1.8,3.57,3.3,7.3,5.28,10.76c1.6,2.79,2.96,5.66,4.07,8.66c2.2,5.92,4.32,11.86,6.61,17.74
	c0.96,2.45,2.16,4.82,3.41,7.14c2.21,4.13,3.46,8.6,4.7,13.06c2.62,9.4,5.1,18.83,7.71,28.22c0.79,2.85,1.97,5.58,2.74,8.43
	c1.1,4.08,2.04,8.21,2.96,12.34c2.11,9.52,4.11,19.06,6.25,28.57c1.16,5.15,2.54,10.24,3.75,15.37c0.32,1.39,0.4,2.85,0.51,4.28
	c0.93,8.22,1.67,14.72,2.23,19.62c0.28-0.01,0.55-0.02,0.82-0.03c3.11-0.08,6.28,0.3,9.32-0.16c5.03-0.76,9.73-2.64,13.57-6.11
	c1.31-1.18,2.61-1.55,4.3-1.58c8.82-0.16,17.31-1.85,25.22-5.87c2.73-1.4,4.97-3.46,6.49-6.21c0.65-1.16,0.88-2.33,0.81-3.67
	c-0.22-4.54-0.52-9.1-0.43-13.64c0.13-7.19,0.55-14.36,0.85-21.55c0.01-0.32,0.03-0.63,0.04-0.95c0.07-5.35,0.07-10.71,0.22-16.05
	c0.12-4.23,0.46-8.45,0.62-12.68c0.14-3.52,0.07-7.04,0.24-10.55c0.22-4.47,0.62-8.92,0.88-13.39c0.39-6.45,0.64-12.92,1.09-19.37
	c0.45-6.53,1.15-13.04,1.63-19.57c0.64-8.8,2.38-17.4,4.26-26c0.62-2.88,0.84-5.85,1.3-8.77c0.27-1.73,0.69-3.44,0.98-5.17
	c2.1-12.37,4.04-24.77,6.34-37.11c1.04-5.56,2.8-10.98,4.21-16.47c1.48-5.73,2.85-11.49,4.43-17.19c2.7-9.77,4.94-19.68,9.26-28.95
	c2.8-6.01,5.17-12.22,7.75-18.32c0.48-1.14,0.86-2.43,2.74-2.63c0,0.74,0.04,1.33,0,1.91c-0.4,5.89-0.88,11.77-1.2,17.67
	c-0.14,2.45,0.06,2.46,2.4,3.34c0.5,0.19,0.94,0.77,1.18,1.28c0.22,0.48,0.13,1.1,0.18,1.66c0.38,3.57,0.69,7.15,1.15,10.71
	c0.34,2.7,0.87,5.37,1.33,8.04c0.1,0.55,0.21,1.12,0.44,1.61c0.64,1.36,1.78,1.53,2.89,0.5c0.12-0.11,0.22-0.23,0.33-0.35
	c1.93-2.17,2.05-2.18,3.41,0.25c2.57,4.6,6.41,8.13,10.06,11.8c1.35,1.36,2.83,2.59,4.28,3.84c0.54,0.46,1.11,0.95,1.76,1.2
	c1.03,0.41,1.87-0.11,2.27-1.49c0.51-1.76,0.9-3.56,1.28-5.36c1.45-6.98,2.33-14.02,2.6-21.15c0.01-0.24-0.01-0.48,0.02-0.72
	c0.19-1.39,0.67-1.68,1.9-1.14c0.22,0.09,0.42,0.24,0.62,0.37c0.71,0.46,1.58,0.85,2.19,0.17c0.46-0.51,0.77-1.45,0.67-2.13
	c-0.51-3.32-1.37-6.57-2.96-9.57c-1.2-2.26-2.42-4.5-3.6-6.77c-0.13-0.25-0.09-0.59-0.16-1.2c0.84,0.09,1.51,0.19,2.19,0.22
	c1.52,0.07,2.24-0.77,1.83-2.25c-0.27-0.98-0.71-1.91-1.12-2.98c1.22-0.41,1.82,0.32,2.4,0.88c0.91,0.9,1.73,1.89,2.62,2.81
	c0.44,0.45,0.91,0.92,1.44,1.25c1.13,0.68,2.14,0.25,2.26-1.06c0.12-1.42-0.02-2.86-0.08-4.29c-0.01-0.47-0.24-0.95-0.21-1.41
	c0.05-0.81,0.59-1.1,1.34-0.88c0.3,0.09,0.59,0.27,0.83,0.47c5.05,4.09,9.81,8.45,13.27,14.05c0.62,1,1.36,2.01,2.27,2.74
	c1.84,1.48,3.65,0.67,3.92-1.67c0.1-0.87-0.05-1.77,0.06-2.63c0.07-0.49,0.34-1.21,0.7-1.34c0.38-0.15,1.11,0.12,1.47,0.45
	c1.24,1.12,2.5,2.26,3.55,3.56c3.26,4.04,6.4,8.18,9.66,12.22c1.55,1.93,3.23,3.74,4.9,5.57c0.66,0.72,1.48,1.33,2.54,0.88
	c1.11-0.46,1.39-1.45,1.39-2.57c-0.01-0.85,0-1.7,0-2.42c1.03-0.62,1.56-0.11,2.08,0.41c3.51,3.63,6.69,7.52,9.42,11.77
	c0.77,1.19,1.73,2.32,2.8,3.23c1.39,1.18,2.53,0.65,2.9-1.15c0.1-0.46,0.04-0.96,0.13-1.43c0.08-0.44,0.27-0.86,0.39-1.23
	c1.28-0.27,1.68,0.61,2.18,1.3c3.17,4.31,6.32,8.64,9.51,12.93c0.71,0.96,1.47,1.94,2.39,2.66c1.77,1.38,3.62,0.58,3.72-1.63
	C778.05,231.39,778.13,228.54,777.24,225.7z"/>
<circle class="st9" cx="673.73" cy="384" r="345.63"/>
</svg>
